<?xml version="1.0" encoding="UTF-8"?>
<svg xmlns="http://www.w3.org/2000/svg" viewBox="0 0 900 380" font-family="'Segoe UI', Arial, sans-serif">
  <defs>
    <linearGradient id="bg" x1="0" y1="0" x2="0" y2="1">
      <stop offset="0%" stop-color="#0a0e27"/>
      <stop offset="100%" stop-color="#1a1e3a"/>
    </linearGradient>
  </defs>
  <rect width="900" height="380" fill="url(#bg)" rx="12"/>

  <!-- Divider -->
  <line x1="450" y1="50" x2="450" y2="350" stroke="#ffffff20" stroke-width="2" stroke-dasharray="8,6"/>

  <!-- Left: Classical (continuous) -->
  <text x="225" y="40" text-anchor="middle" fill="#FF6B6B" font-size="20" font-weight="bold">CLASSICAL</text>
  <text x="225" y="60" text-anchor="middle" fill="#ffffff60" font-size="13">Energy flows like water</text>
  <polyline points="30,200.0 32,207.7 34,215.4 36,222.9 38,230.2 40,237.2 42,243.8 44,250.1 46,255.9 48,261.1 50,265.8 52,269.9 54,273.3 56,276.1 58,278.1 60,279.4 62,280.0 64,279.8 66,278.9 68,277.2 70,274.8 72,271.7 74,268.0 76,263.6 78,258.6 80,253.0 82,247.0 84,240.6 86,233.7 88,226.6 90,219.1 92,211.6 94,203.9 96,196.1 98,188.4 100,180.9 102,173.4 104,166.3 106,159.4 108,153.0 110,147.0 112,141.4 114,136.4 116,132.0 118,128.3 120,125.2 122,122.8 124,121.1 126,120.2 128,120.0 130,120.6 132,121.9 134,123.9 136,126.7 138,130.1 140,134.2 142,138.9 144,144.1 146,149.9 148,156.2 150,162.8 152,169.8 154,177.1 156,184.6 158,192.3 160,200.0 162,207.7 164,215.4 166,222.9 168,230.2 170,237.2 172,243.8 174,250.1 176,255.9 178,261.1 180,265.8 182,269.9 184,273.3 186,276.1 188,278.1 190,279.4 192,280.0 194,279.8 196,278.9 198,277.2 200,274.8 202,271.7 204,268.0 206,263.6 208,258.6 210,253.0 212,247.0 214,240.6 216,233.7 218,226.6 220,219.1 222,211.6 224,203.9 226,196.1 228,188.4 230,180.9 232,173.4 234,166.3 236,159.4 238,153.0 240,147.0 242,141.4 244,136.4 246,132.0 248,128.3 250,125.2 252,122.8 254,121.1 256,120.2 258,120.0 260,120.6 262,121.9 264,123.9 266,126.7 268,130.1 270,134.2 272,138.9 274,144.1 276,149.9 278,156.2 280,162.8 282,169.8 284,177.1 286,184.6 288,192.3 290,200.0 292,207.7 294,215.4 296,222.9 298,230.2 300,237.2 302,243.8 304,250.1 306,255.9 308,261.1 310,265.8 312,269.9 314,273.3 316,276.1 318,278.1 320,279.4 322,280.0 324,279.8 326,278.9 328,277.2 330,274.8 332,271.7 334,268.0 336,263.6 338,258.6 340,253.0 342,247.0 344,240.6 346,233.7 348,226.6 350,219.1 352,211.6 354,203.9 356,196.1 358,188.4 360,180.9 362,173.4 364,166.3 366,159.4 368,153.0 370,147.0 372,141.4 374,136.4 376,132.0 378,128.3 380,125.2 382,122.8 384,121.1 386,120.2 388,120.0 390,120.6 392,121.9 394,123.9 396,126.7 398,130.1 400,134.2 402,138.9 404,144.1 406,149.9 408,156.2 410,162.8 412,169.8 414,177.1 416,184.6 418,192.3" fill="none" stroke="#FF6B6B" stroke-width="3" opacity="0.8"/>
  <polyline points="30,280 30,200.0 32,207.7 34,215.4 36,222.9 38,230.2 40,237.2 42,243.8 44,250.1 46,255.9 48,261.1 50,265.8 52,269.9 54,273.3 56,276.1 58,278.1 60,279.4 62,280.0 64,279.8 66,278.9 68,277.2 70,274.8 72,271.7 74,268.0 76,263.6 78,258.6 80,253.0 82,247.0 84,240.6 86,233.7 88,226.6 90,219.1 92,211.6 94,203.9 96,196.1 98,188.4 100,180.9 102,173.4 104,166.3 106,159.4 108,153.0 110,147.0 112,141.4 114,136.4 116,132.0 118,128.3 120,125.2 122,122.8 124,121.1 126,120.2 128,120.0 130,120.6 132,121.9 134,123.9 136,126.7 138,130.1 140,134.2 142,138.9 144,144.1 146,149.9 148,156.2 150,162.8 152,169.8 154,177.1 156,184.6 158,192.3 160,200.0 162,207.7 164,215.4 166,222.9 168,230.2 170,237.2 172,243.8 174,250.1 176,255.9 178,261.1 180,265.8 182,269.9 184,273.3 186,276.1 188,278.1 190,279.4 192,280.0 194,279.8 196,278.9 198,277.2 200,274.8 202,271.7 204,268.0 206,263.6 208,258.6 210,253.0 212,247.0 214,240.6 216,233.7 218,226.6 220,219.1 222,211.6 224,203.9 226,196.1 228,188.4 230,180.9 232,173.4 234,166.3 236,159.4 238,153.0 240,147.0 242,141.4 244,136.4 246,132.0 248,128.3 250,125.2 252,122.8 254,121.1 256,120.2 258,120.0 260,120.6 262,121.9 264,123.9 266,126.7 268,130.1 270,134.2 272,138.9 274,144.1 276,149.9 278,156.2 280,162.8 282,169.8 284,177.1 286,184.6 288,192.3 290,200.0 292,207.7 294,215.4 296,222.9 298,230.2 300,237.2 302,243.8 304,250.1 306,255.9 308,261.1 310,265.8 312,269.9 314,273.3 316,276.1 318,278.1 320,279.4 322,280.0 324,279.8 326,278.9 328,277.2 330,274.8 332,271.7 334,268.0 336,263.6 338,258.6 340,253.0 342,247.0 344,240.6 346,233.7 348,226.6 350,219.1 352,211.6 354,203.9 356,196.1 358,188.4 360,180.9 362,173.4 364,166.3 366,159.4 368,153.0 370,147.0 372,141.4 374,136.4 376,132.0 378,128.3 380,125.2 382,122.8 384,121.1 386,120.2 388,120.0 390,120.6 392,121.9 394,123.9 396,126.7 398,130.1 400,134.2 402,138.9 404,144.1 406,149.9 408,156.2 410,162.8 412,169.8 414,177.1 416,184.6 418,192.3 420,280" fill="#FF6B6B10" stroke="none"/>

  <text x="225" y="320" text-anchor="middle" fill="#FF6B6B80" font-size="12">Any amount of energy is possible</text>
  <text x="225" y="338" text-anchor="middle" fill="#FF6B6B80" font-size="12">Smooth, continuous spectrum</text>

  <!-- Right: Quantum (discrete) -->
  <text x="675" y="40" text-anchor="middle" fill="#B388FF" font-size="20" font-weight="bold">QUANTUM</text>
  <text x="675" y="60" text-anchor="middle" fill="#ffffff60" font-size="13">Energy comes in packets (quanta)</text>
  <rect x="490" y="230" width="35" height="50" fill="#B388FF" opacity="0.15" rx="3"/>
  <rect x="490" y="230" width="35" height="50" fill="none" stroke="#B388FF" stroke-width="2" rx="3" opacity="0.7"/>
  <circle cx="507.5" cy="222" r="4" fill="#FFEB3B" opacity="0.8"/>
  <rect x="533" y="190" width="35" height="90" fill="#B388FF" opacity="0.15" rx="3"/>
  <rect x="533" y="190" width="35" height="90" fill="none" stroke="#B388FF" stroke-width="2" rx="3" opacity="0.7"/>
  <circle cx="550.5" cy="182" r="4" fill="#FFEB3B" opacity="0.8"/>
  <rect x="576" y="150" width="35" height="130" fill="#B388FF" opacity="0.15" rx="3"/>
  <rect x="576" y="150" width="35" height="130" fill="none" stroke="#B388FF" stroke-width="2" rx="3" opacity="0.7"/>
  <circle cx="593.5" cy="142" r="4" fill="#FFEB3B" opacity="0.8"/>
  <rect x="619" y="120" width="35" height="160" fill="#B388FF" opacity="0.15" rx="3"/>
  <rect x="619" y="120" width="35" height="160" fill="none" stroke="#B388FF" stroke-width="2" rx="3" opacity="0.7"/>
  <circle cx="636.5" cy="112" r="4" fill="#FFEB3B" opacity="0.8"/>
  <rect x="662" y="150" width="35" height="130" fill="#B388FF" opacity="0.15" rx="3"/>
  <rect x="662" y="150" width="35" height="130" fill="none" stroke="#B388FF" stroke-width="2" rx="3" opacity="0.7"/>
  <circle cx="679.5" cy="142" r="4" fill="#FFEB3B" opacity="0.8"/>
  <rect x="705" y="190" width="35" height="90" fill="#B388FF" opacity="0.15" rx="3"/>
  <rect x="705" y="190" width="35" height="90" fill="none" stroke="#B388FF" stroke-width="2" rx="3" opacity="0.7"/>
  <circle cx="722.5" cy="182" r="4" fill="#FFEB3B" opacity="0.8"/>
  <rect x="748" y="230" width="35" height="50" fill="#B388FF" opacity="0.15" rx="3"/>
  <rect x="748" y="230" width="35" height="50" fill="none" stroke="#B388FF" stroke-width="2" rx="3" opacity="0.7"/>
  <circle cx="765.5" cy="222" r="4" fill="#FFEB3B" opacity="0.8"/>
  <rect x="791" y="250" width="35" height="30" fill="#B388FF" opacity="0.15" rx="3"/>
  <rect x="791" y="250" width="35" height="30" fill="none" stroke="#B388FF" stroke-width="2" rx="3" opacity="0.7"/>
  <circle cx="808.5" cy="242" r="4" fill="#FFEB3B" opacity="0.8"/>
  <rect x="834" y="265" width="35" height="15" fill="#B388FF" opacity="0.15" rx="3"/>
  <rect x="834" y="265" width="35" height="15" fill="none" stroke="#B388FF" stroke-width="2" rx="3" opacity="0.7"/>
  <circle cx="851.5" cy="257" r="4" fill="#FFEB3B" opacity="0.8"/>

  <text x="675" y="320" text-anchor="middle" fill="#B388FF80" font-size="12">Only specific energy levels allowed</text>
  <text x="675" y="338" text-anchor="middle" fill="#B388FF80" font-size="12">Discrete packets: E = h x f</text>

  <!-- Labels -->
  <text x="60" y="165" fill="#ffffff30" font-size="11">Energy</text>
  <text x="380" y="290" fill="#ffffff30" font-size="11">frequency</text>
  <text x="500" y="165" fill="#ffffff30" font-size="11">Energy</text>
  <text x="830" y="290" fill="#ffffff30" font-size="11">frequency</text>

</svg>