<?xml version="1.0" encoding="UTF-8"?>
<svg xmlns="http://www.w3.org/2000/svg" viewBox="0 0 700 450" font-family="'Segoe UI', Arial, sans-serif">
  <defs>
    <linearGradient id="bg2" x1="0" y1="0" x2="0" y2="1">
      <stop offset="0%" stop-color="#0a0e27"/>
      <stop offset="100%" stop-color="#1a1e3a"/>
    </linearGradient>
    <radialGradient id="nucleus" cx="50%" cy="50%" r="50%">
      <stop offset="0%" stop-color="#FF6B6B"/>
      <stop offset="100%" stop-color="#D32F2F"/>
    </radialGradient>
  </defs>
  <rect width="700" height="450" fill="url(#bg2)" rx="12"/>

  <text x="350" y="35" text-anchor="middle" fill="#fff" font-size="20" font-weight="bold">BOHR MODEL: QUANTUM LEAPS</text>
  <text x="350" y="55" text-anchor="middle" fill="#ffffff80" font-size="13">Electrons can only exist at specific energy levels</text>
  <circle cx="280" cy="250" r="60" fill="none" stroke="#B388FF" stroke-width="1.5" opacity="1.0" stroke-dasharray="6,4"/>
  <text x="348" y="245" fill="#B388FF" font-size="11" opacity="1.2">n=1</text>
  <circle cx="280" cy="250" r="100" fill="none" stroke="#B388FF" stroke-width="1.5" opacity="0.7" stroke-dasharray="6,4"/>
  <text x="388" y="245" fill="#B388FF" font-size="11" opacity="0.8999999999999999">n=2</text>
  <circle cx="280" cy="250" r="145" fill="none" stroke="#B388FF" stroke-width="1.5" opacity="0.5" stroke-dasharray="6,4"/>
  <text x="433" y="245" fill="#B388FF" font-size="11" opacity="0.7">n=3</text>
  <circle cx="280" cy="250" r="190" fill="none" stroke="#B388FF" stroke-width="1.5" opacity="0.35" stroke-dasharray="6,4"/>
  <text x="478" y="245" fill="#B388FF" font-size="11" opacity="0.55">n=4</text>
  <circle cx="280" cy="250" r="18" fill="url(#nucleus)"/>
  <text x="280" y="255" text-anchor="middle" fill="#fff" font-size="10" font-weight="bold">nucleus</text>
  <circle cx="154" cy="178" r="10" fill="#4FC3F7"/>
  <text x="154" y="182" text-anchor="middle" fill="#000" font-size="9" font-weight="bold">e-</text>

  <!-- Quantum leap arrow -->
  <path d="M 154 178 Q 250 290 332 220" fill="none" stroke="#FFEB3B" stroke-width="2.5" stroke-dasharray="6,3"/>

  <!-- Photon emitted -->
  <circle cx="230" cy="330" r="8" fill="#FFEB3B" opacity="0.9"/>
  <polyline points="220,335 215,341 210,343 205,340 200,335 195,329 190,327 185,330 180,336 175,341 170,343 165,340 160,334 155,328 150,327 145,331 140,337 135,342 130,343 125,339 120,333 115,328 110,327 105,332 100,338 95,342 90,342 85,338 80,332 75,328" fill="none" stroke="#FFEB3B" stroke-width="2" opacity="0.6"/>

  <text x="170" y="365" fill="#FFEB3B" font-size="12">photon emitted</text>

  <!-- Right side: energy level diagram -->
  <rect x="490" y="80" width="190" height="340" fill="#ffffff06" rx="8" stroke="#ffffff15" stroke-width="1"/>
  <text x="585" y="105" text-anchor="middle" fill="#fff" font-size="14" font-weight="bold">Energy Levels</text>

  <!-- Energy levels -->
  <line x1="510" y1="360" x2="660" y2="360" stroke="#B388FF" stroke-width="2"/>
  <text x="670" y="365" fill="#B388FF" font-size="11">n=1 (ground)</text>

  <line x1="510" y1="290" x2="660" y2="290" stroke="#B388FF" stroke-width="2" opacity="0.7"/>
  <text x="670" y="295" fill="#B388FF" font-size="11" opacity="0.7">n=2</text>

  <line x1="510" y1="230" x2="660" y2="230" stroke="#B388FF" stroke-width="2" opacity="0.5"/>
  <text x="670" y="235" fill="#B388FF" font-size="11" opacity="0.5">n=3</text>

  <line x1="510" y1="180" x2="660" y2="180" stroke="#B388FF" stroke-width="2" opacity="0.35"/>
  <text x="670" y="185" fill="#B388FF" font-size="11" opacity="0.35">n=4</text>

  <!-- Jump arrow -->
  <line x1="550" y1="225" x2="550" y2="365" stroke="#FFEB3B" stroke-width="2.5"/>
  <polygon points="546,365 550,375 554,365" fill="#FFEB3B"/>
  <text x="530" y="300" fill="#FFEB3B" font-size="11" transform="rotate(-90, 530, 300)">LEAP</text>

  <!-- No in-between label -->
  <text x="585" y="420" text-anchor="middle" fill="#ffffff50" font-size="12">No orbits exist between the lines.</text>
  <text x="585" y="436" text-anchor="middle" fill="#ffffff50" font-size="12">Jump or nothing.</text>

</svg>