<?xml version="1.0" encoding="UTF-8"?>
<svg xmlns="http://www.w3.org/2000/svg" viewBox="0 0 800 400" font-family="'Segoe UI', Arial, sans-serif">
  <defs>
    <linearGradient id="bg3" x1="0" y1="0" x2="0" y2="1">
      <stop offset="0%" stop-color="#0a0e27"/>
      <stop offset="100%" stop-color="#1a1e3a"/>
    </linearGradient>
    <radialGradient id="cloud" cx="50%" cy="50%" r="50%">
      <stop offset="0%" stop-color="#B388FF" stop-opacity="0.6"/>
      <stop offset="30%" stop-color="#B388FF" stop-opacity="0.3"/>
      <stop offset="60%" stop-color="#B388FF" stop-opacity="0.1"/>
      <stop offset="100%" stop-color="#B388FF" stop-opacity="0"/>
    </radialGradient>
  </defs>
  <rect width="800" height="400" fill="url(#bg3)" rx="12"/>

  <!-- Divider -->
  <line x1="400" y1="60" x2="400" y2="360" stroke="#ffffff20" stroke-width="2" stroke-dasharray="8,6"/>

  <!-- Left: Classical electron (definite position) -->
  <text x="200" y="40" text-anchor="middle" fill="#FF6B6B" font-size="20" font-weight="bold">CLASSICAL VIEW</text>
  <text x="200" y="60" text-anchor="middle" fill="#ffffff60" font-size="13">"The electron IS here"</text>

  <!-- Orbit circle -->
  <circle cx="200" cy="210" r="90" fill="none" stroke="#ffffff20" stroke-width="1"/>
  <!-- Nucleus -->
  <circle cx="200" cy="210" r="12" fill="#FF6B6B80"/>
  <!-- Electron as a definite dot -->
  <circle cx="268" cy="150" r="10" fill="#4FC3F7"/>
  <text x="268" y="154" text-anchor="middle" fill="#000" font-size="9" font-weight="bold">e-</text>
  <!-- Orbit path -->
  <circle cx="200" cy="210" r="90" fill="none" stroke="#4FC3F7" stroke-width="1.5" stroke-dasharray="4,3" opacity="0.5"/>
  <!-- Arrow showing orbit direction -->
  <text x="200" y="330" text-anchor="middle" fill="#FF6B6B80" font-size="12">Electron follows a definite path</text>
  <text x="200" y="348" text-anchor="middle" fill="#FF6B6B80" font-size="12">like a tiny planet</text>

  <!-- Right: Quantum electron (probability cloud) -->
  <text x="600" y="40" text-anchor="middle" fill="#B388FF" font-size="20" font-weight="bold">QUANTUM VIEW</text>
  <text x="600" y="60" text-anchor="middle" fill="#ffffff60" font-size="13">"The electron MIGHT be here, here, or here"</text>

  <!-- Nucleus -->
  <circle cx="600" cy="210" r="12" fill="#B388FF40"/>

  <!-- Probability cloud (concentric fuzzy circles) -->
  <circle cx="600" cy="210" r="120" fill="url(#cloud)"/>
  <circle cx="600" cy="210" r="80" fill="url(#cloud)"/>
  <circle cx="546.4" cy="145.7" r="1.4" fill="#B388FF" opacity="0.08"/>
  <circle cx="594.6" cy="146.5" r="2.4" fill="#B388FF" opacity="0.18"/>
  <circle cx="667.7" cy="155.6" r="1.1" fill="#B388FF" opacity="0.07"/>
  <circle cx="614.9" cy="284.8" r="2.0" fill="#B388FF" opacity="0.12"/>
  <circle cx="672.7" cy="222.2" r="2.1" fill="#B388FF" opacity="0.13"/>
  <circle cx="618.7" cy="309.5" r="2.2" fill="#B388FF" opacity="0.05"/>
  <circle cx="641.7" cy="103.6" r="2.4" fill="#B388FF" opacity="0.05"/>
  <circle cx="566.6" cy="262.5" r="1.3" fill="#B388FF" opacity="0.19"/>
  <circle cx="651.2" cy="195.9" r="1.2" fill="#B388FF" opacity="0.23"/>
  <circle cx="641.0" cy="151.6" r="2.2" fill="#B388FF" opacity="0.14"/>
  <circle cx="619.4" cy="158.2" r="2.9" fill="#B388FF" opacity="0.22"/>
  <circle cx="583.3" cy="226.0" r="2.1" fill="#B388FF" opacity="0.38"/>
  <circle cx="607.7" cy="195.8" r="2.2" fill="#B388FF" opacity="0.42"/>
  <circle cx="594.5" cy="191.2" r="1.1" fill="#B388FF" opacity="0.40"/>
  <circle cx="607.9" cy="266.5" r="1.5" fill="#B388FF" opacity="0.21"/>
  <circle cx="657.9" cy="252.6" r="1.6" fill="#B388FF" opacity="0.14"/>
  <circle cx="573.1" cy="179.2" r="1.4" fill="#B388FF" opacity="0.30"/>
  <circle cx="591.3" cy="291.2" r="2.9" fill="#B388FF" opacity="0.09"/>
  <circle cx="572.6" cy="173.3" r="2.5" fill="#B388FF" opacity="0.27"/>
  <circle cx="625.0" cy="251.4" r="1.8" fill="#B388FF" opacity="0.26"/>
  <circle cx="635.5" cy="207.7" r="2.4" fill="#B388FF" opacity="0.32"/>
  <circle cx="616.8" cy="184.5" r="2.6" fill="#B388FF" opacity="0.35"/>
  <circle cx="611.2" cy="294.8" r="1.5" fill="#B388FF" opacity="0.07"/>
  <circle cx="615.8" cy="273.3" r="2.9" fill="#B388FF" opacity="0.17"/>
  <circle cx="630.4" cy="180.1" r="1.8" fill="#B388FF" opacity="0.29"/>
  <circle cx="686.1" cy="158.7" r="1.9" fill="#B388FF" opacity="0.05"/>
  <circle cx="594.3" cy="270.6" r="1.5" fill="#B388FF" opacity="0.20"/>
  <circle cx="515.1" cy="160.1" r="2.8" fill="#B388FF" opacity="0.05"/>
  <circle cx="535.5" cy="257.2" r="2.0" fill="#B388FF" opacity="0.10"/>
  <circle cx="688.5" cy="237.0" r="2.6" fill="#B388FF" opacity="0.05"/>
  <circle cx="523.4" cy="250.8" r="1.1" fill="#B388FF" opacity="0.07"/>
  <circle cx="528.8" cy="275.5" r="2.9" fill="#B388FF" opacity="0.05"/>
  <circle cx="637.9" cy="164.6" r="1.0" fill="#B388FF" opacity="0.20"/>
  <circle cx="591.9" cy="166.2" r="1.5" fill="#B388FF" opacity="0.28"/>
  <circle cx="583.5" cy="189.8" r="1.2" fill="#B388FF" opacity="0.37"/>
  <circle cx="589.7" cy="214.5" r="2.8" fill="#B388FF" opacity="0.44"/>
  <circle cx="593.2" cy="291.0" r="2.0" fill="#B388FF" opacity="0.09"/>
  <circle cx="648.4" cy="310.7" r="1.6" fill="#B388FF" opacity="0.05"/>
  <circle cx="581.8" cy="188.3" r="2.2" fill="#B388FF" opacity="0.36"/>
  <circle cx="636.1" cy="261.6" r="2.6" fill="#B388FF" opacity="0.19"/>
  <circle cx="577.7" cy="205.7" r="1.0" fill="#B388FF" opacity="0.39"/>
  <circle cx="649.5" cy="162.8" r="2.7" fill="#B388FF" opacity="0.16"/>
  <circle cx="558.5" cy="319.9" r="2.9" fill="#B388FF" opacity="0.05"/>
  <circle cx="670.3" cy="252.0" r="2.0" fill="#B388FF" opacity="0.09"/>
  <circle cx="657.5" cy="236.7" r="1.3" fill="#B388FF" opacity="0.18"/>
  <circle cx="591.1" cy="211.4" r="2.1" fill="#B388FF" opacity="0.46"/>
  <circle cx="592.3" cy="291.5" r="1.4" fill="#B388FF" opacity="0.09"/>
  <circle cx="563.7" cy="200.9" r="2.5" fill="#B388FF" opacity="0.31"/>
  <circle cx="606.9" cy="231.9" r="2.3" fill="#B388FF" opacity="0.39"/>
  <circle cx="525.0" cy="201.7" r="1.7" fill="#B388FF" opacity="0.12"/>
  <circle cx="536.5" cy="170.6" r="1.5" fill="#B388FF" opacity="0.13"/>
  <circle cx="618.3" cy="306.5" r="1.5" fill="#B388FF" opacity="0.05"/>
  <circle cx="664.9" cy="166.2" r="2.7" fill="#B388FF" opacity="0.11"/>
  <circle cx="657.2" cy="237.3" r="1.4" fill="#B388FF" opacity="0.18"/>
  <circle cx="670.4" cy="287.2" r="2.9" fill="#B388FF" opacity="0.05"/>
  <circle cx="592.6" cy="206.5" r="2.6" fill="#B388FF" opacity="0.46"/>
  <circle cx="625.2" cy="274.2" r="1.2" fill="#B388FF" opacity="0.16"/>
  <circle cx="572.6" cy="222.7" r="2.5" fill="#B388FF" opacity="0.35"/>
  <circle cx="565.0" cy="143.0" r="3.0" fill="#B388FF" opacity="0.12"/>
  <circle cx="630.7" cy="231.8" r="2.7" fill="#B388FF" opacity="0.31"/>
  <circle cx="600.6" cy="285.7" r="1.4" fill="#B388FF" opacity="0.12"/>
  <circle cx="563.4" cy="222.3" r="1.5" fill="#B388FF" opacity="0.31"/>
  <circle cx="663.3" cy="176.9" r="1.9" fill="#B388FF" opacity="0.14"/>
  <circle cx="632.7" cy="171.1" r="3.0" fill="#B388FF" opacity="0.25"/>
  <circle cx="629.3" cy="161.1" r="2.9" fill="#B388FF" opacity="0.22"/>
  <circle cx="663.1" cy="178.5" r="2.0" fill="#B388FF" opacity="0.15"/>
  <circle cx="610.2" cy="254.1" r="1.8" fill="#B388FF" opacity="0.27"/>
  <circle cx="602.9" cy="211.1" r="1.5" fill="#B388FF" opacity="0.48"/>
  <circle cx="593.6" cy="211.9" r="3.0" fill="#B388FF" opacity="0.47"/>
  <circle cx="510.7" cy="177.4" r="2.4" fill="#B388FF" opacity="0.05"/>
  <circle cx="620.9" cy="240.7" r="2.2" fill="#B388FF" opacity="0.31"/>
  <circle cx="598.8" cy="112.8" r="2.0" fill="#B388FF" opacity="0.05"/>
  <circle cx="644.5" cy="150.9" r="1.3" fill="#B388FF" opacity="0.13"/>
  <circle cx="674.5" cy="191.3" r="2.2" fill="#B388FF" opacity="0.12"/>
  <circle cx="568.6" cy="148.2" r="1.5" fill="#B388FF" opacity="0.15"/>
  <circle cx="656.5" cy="262.9" r="2.2" fill="#B388FF" opacity="0.11"/>
  <circle cx="566.6" cy="178.9" r="1.8" fill="#B388FF" opacity="0.27"/>
  <circle cx="591.9" cy="205.3" r="1.4" fill="#B388FF" opacity="0.45"/>
  <circle cx="589.5" cy="161.1" r="1.5" fill="#B388FF" opacity="0.25"/>
  <circle cx="561.9" cy="239.3" r="1.6" fill="#B388FF" opacity="0.26"/>
  <circle cx="600.4" cy="172.3" r="1.1" fill="#B388FF" opacity="0.31"/>
  <circle cx="652.9" cy="236.2" r="1.4" fill="#B388FF" opacity="0.20"/>
  <circle cx="588.9" cy="326.0" r="2.8" fill="#B388FF" opacity="0.05"/>
  <circle cx="576.3" cy="235.4" r="1.3" fill="#B388FF" opacity="0.33"/>
  <circle cx="624.2" cy="168.4" r="3.0" fill="#B388FF" opacity="0.26"/>
  <circle cx="588.4" cy="193.1" r="1.0" fill="#B388FF" opacity="0.40"/>
  <circle cx="619.0" cy="167.6" r="2.9" fill="#B388FF" opacity="0.27"/>
  <circle cx="667.9" cy="286.3" r="1.2" fill="#B388FF" opacity="0.05"/>
  <circle cx="629.3" cy="233.3" r="2.2" fill="#B388FF" opacity="0.31"/>
  <circle cx="589.5" cy="158.9" r="1.4" fill="#B388FF" opacity="0.24"/>
  <circle cx="562.1" cy="167.5" r="2.8" fill="#B388FF" opacity="0.22"/>
  <circle cx="653.7" cy="132.1" r="1.2" fill="#B388FF" opacity="0.05"/>
  <circle cx="547.2" cy="237.5" r="2.5" fill="#B388FF" opacity="0.20"/>
  <circle cx="559.3" cy="162.6" r="1.5" fill="#B388FF" opacity="0.19"/>
  <circle cx="598.3" cy="180.1" r="1.0" fill="#B388FF" opacity="0.35"/>
  <circle cx="644.4" cy="232.7" r="2.8" fill="#B388FF" opacity="0.25"/>
  <circle cx="604.5" cy="206.9" r="2.2" fill="#B388FF" opacity="0.47"/>
  <circle cx="626.2" cy="245.2" r="1.3" fill="#B388FF" opacity="0.28"/>
  <circle cx="563.1" cy="306.3" r="2.7" fill="#B388FF" opacity="0.05"/>
  <circle cx="622.8" cy="193.2" r="1.4" fill="#B388FF" opacity="0.36"/>
  <circle cx="600.3" cy="311.7" r="2.8" fill="#B388FF" opacity="0.05"/>
  <circle cx="523.9" cy="260.7" r="2.2" fill="#B388FF" opacity="0.05"/>
  <circle cx="664.5" cy="304.3" r="3.0" fill="#B388FF" opacity="0.05"/>
  <circle cx="612.8" cy="178.1" r="2.8" fill="#B388FF" opacity="0.33"/>
  <circle cx="657.0" cy="219.0" r="2.9" fill="#B388FF" opacity="0.21"/>
  <circle cx="610.7" cy="178.6" r="2.7" fill="#B388FF" opacity="0.33"/>
  <circle cx="620.3" cy="159.5" r="1.2" fill="#B388FF" opacity="0.23"/>
  <circle cx="678.1" cy="129.0" r="2.7" fill="#B388FF" opacity="0.05"/>
  <circle cx="612.7" cy="282.4" r="1.6" fill="#B388FF" opacity="0.13"/>
  <circle cx="608.3" cy="181.6" r="1.5" fill="#B388FF" opacity="0.35"/>
  <circle cx="668.6" cy="220.3" r="2.7" fill="#B388FF" opacity="0.15"/>
  <circle cx="683.2" cy="192.4" r="1.6" fill="#B388FF" opacity="0.07"/>
  <circle cx="594.8" cy="203.6" r="2.1" fill="#B388FF" opacity="0.46"/>
  <circle cx="701.9" cy="169.1" r="1.2" fill="#B388FF" opacity="0.05"/>
  <circle cx="691.8" cy="192.7" r="1.5" fill="#B388FF" opacity="0.05"/>
  <circle cx="548.2" cy="232.6" r="2.2" fill="#B388FF" opacity="0.22"/>
  <circle cx="565.9" cy="207.5" r="1.8" fill="#B388FF" opacity="0.33"/>
  <circle cx="548.1" cy="182.9" r="1.0" fill="#B388FF" opacity="0.21"/>
  <circle cx="695.6" cy="161.7" r="2.1" fill="#B388FF" opacity="0.05"/>
  <circle cx="589.0" cy="153.3" r="1.7" fill="#B388FF" opacity="0.21"/>
  <circle cx="613.9" cy="216.5" r="2.3" fill="#B388FF" opacity="0.42"/>
  <circle cx="582.0" cy="242.6" r="2.4" fill="#B388FF" opacity="0.31"/>
  <circle cx="564.7" cy="318.0" r="1.6" fill="#B388FF" opacity="0.05"/>
  <circle cx="566.9" cy="231.5" r="1.3" fill="#B388FF" opacity="0.30"/>
  <circle cx="534.7" cy="245.7" r="2.9" fill="#B388FF" opacity="0.13"/>
  <circle cx="558.6" cy="125.6" r="1.6" fill="#B388FF" opacity="0.05"/>
  <circle cx="565.4" cy="199.3" r="1.0" fill="#B388FF" opacity="0.32"/>
  <circle cx="594.4" cy="233.6" r="2.3" fill="#B388FF" opacity="0.38"/>
  <circle cx="525.0" cy="226.8" r="1.9" fill="#B388FF" opacity="0.12"/>
  <circle cx="600.8" cy="213.5" r="2.6" fill="#B388FF" opacity="0.48"/>
  <circle cx="634.2" cy="272.0" r="1.2" fill="#B388FF" opacity="0.15"/>
  <circle cx="558.4" cy="205.9" r="2.6" fill="#B388FF" opacity="0.29"/>
  <circle cx="600.3" cy="170.1" r="2.3" fill="#B388FF" opacity="0.30"/>
  <circle cx="609.9" cy="271.3" r="1.5" fill="#B388FF" opacity="0.19"/>
  <circle cx="534.5" cy="220.3" r="2.7" fill="#B388FF" opacity="0.17"/>
  <circle cx="621.2" cy="220.5" r="1.4" fill="#B388FF" opacity="0.38"/>
  <circle cx="573.0" cy="132.9" r="2.0" fill="#B388FF" opacity="0.09"/>
  <circle cx="602.2" cy="268.2" r="2.5" fill="#B388FF" opacity="0.21"/>
  <circle cx="607.2" cy="153.1" r="1.2" fill="#B388FF" opacity="0.21"/>
  <circle cx="516.3" cy="252.6" r="2.0" fill="#B388FF" opacity="0.05"/>
  <circle cx="600.4" cy="289.2" r="2.6" fill="#B388FF" opacity="0.10"/>
  <circle cx="583.7" cy="181.3" r="3.0" fill="#B388FF" opacity="0.34"/>
  <circle cx="569.2" cy="183.7" r="2.4" fill="#B388FF" opacity="0.30"/>
  <circle cx="521.7" cy="207.6" r="2.8" fill="#B388FF" opacity="0.11"/>
  <circle cx="598.9" cy="183.1" r="1.9" fill="#B388FF" opacity="0.37"/>
  <circle cx="596.5" cy="270.6" r="2.5" fill="#B388FF" opacity="0.20"/>
  <circle cx="498.2" cy="196.3" r="2.3" fill="#B388FF" opacity="0.05"/>
  <circle cx="587.4" cy="290.8" r="1.5" fill="#B388FF" opacity="0.09"/>
  <circle cx="569.7" cy="274.8" r="2.1" fill="#B388FF" opacity="0.14"/>
  <circle cx="642.2" cy="260.0" r="2.4" fill="#B388FF" opacity="0.17"/>
  <circle cx="697.3" cy="251.6" r="1.8" fill="#B388FF" opacity="0.05"/>
  <circle cx="559.1" cy="198.8" r="1.8" fill="#B388FF" opacity="0.29"/>
  <circle cx="658.1" cy="170.4" r="2.2" fill="#B388FF" opacity="0.15"/>
  <circle cx="569.2" cy="123.6" r="1.8" fill="#B388FF" opacity="0.05"/>
  <circle cx="620.0" cy="210.7" r="1.7" fill="#B388FF" opacity="0.40"/>
  <circle cx="602.3" cy="105.1" r="1.8" fill="#B388FF" opacity="0.05"/>
  <circle cx="600.0" cy="209.1" r="2.1" fill="#B388FF" opacity="0.50"/>
  <circle cx="549.1" cy="171.4" r="1.9" fill="#B388FF" opacity="0.18"/>
  <circle cx="679.4" cy="224.6" r="1.7" fill="#B388FF" opacity="0.10"/>
  <circle cx="580.6" cy="169.3" r="1.9" fill="#B388FF" opacity="0.27"/>
  <circle cx="648.8" cy="260.4" r="2.2" fill="#B388FF" opacity="0.15"/>
  <circle cx="629.2" cy="215.0" r="1.1" fill="#B388FF" opacity="0.35"/>
  <circle cx="547.6" cy="144.4" r="1.3" fill="#B388FF" opacity="0.08"/>
  <circle cx="514.7" cy="230.9" r="1.4" fill="#B388FF" opacity="0.06"/>
  <circle cx="567.9" cy="271.2" r="2.5" fill="#B388FF" opacity="0.15"/>
  <circle cx="556.0" cy="251.8" r="1.5" fill="#B388FF" opacity="0.20"/>
  <circle cx="602.9" cy="211.6" r="1.0" fill="#B388FF" opacity="0.48"/>
  <circle cx="514.8" cy="188.5" r="2.3" fill="#B388FF" opacity="0.06"/>
  <circle cx="611.7" cy="151.2" r="2.3" fill="#B388FF" opacity="0.20"/>
  <circle cx="602.1" cy="131.0" r="1.0" fill="#B388FF" opacity="0.10"/>
  <circle cx="631.0" cy="254.0" r="1.3" fill="#B388FF" opacity="0.23"/>
  <circle cx="580.3" cy="174.5" r="2.4" fill="#B388FF" opacity="0.30"/>
  <circle cx="605.5" cy="158.5" r="1.3" fill="#B388FF" opacity="0.24"/>
  <circle cx="553.3" cy="172.7" r="2.6" fill="#B388FF" opacity="0.20"/>
  <circle cx="644.1" cy="200.1" r="1.2" fill="#B388FF" opacity="0.27"/>
  <circle cx="642.3" cy="216.9" r="2.9" fill="#B388FF" opacity="0.29"/>
  <circle cx="519.0" cy="271.5" r="2.4" fill="#B388FF" opacity="0.05"/>
  <circle cx="639.6" cy="230.5" r="1.2" fill="#B388FF" opacity="0.28"/>
  <circle cx="602.9" cy="189.5" r="2.7" fill="#B388FF" opacity="0.40"/>
  <circle cx="624.3" cy="93.1" r="1.7" fill="#B388FF" opacity="0.05"/>
  <circle cx="568.0" cy="225.4" r="1.7" fill="#B388FF" opacity="0.32"/>
  <circle cx="650.3" cy="140.4" r="2.6" fill="#B388FF" opacity="0.07"/>
  <circle cx="679.9" cy="272.4" r="2.7" fill="#B388FF" opacity="0.05"/>
  <circle cx="586.9" cy="162.2" r="1.9" fill="#B388FF" opacity="0.25"/>
  <circle cx="591.5" cy="127.2" r="2.6" fill="#B388FF" opacity="0.08"/>
  <circle cx="546.7" cy="197.0" r="2.0" fill="#B388FF" opacity="0.23"/>
  <circle cx="547.4" cy="232.5" r="2.7" fill="#B388FF" opacity="0.21"/>
  <circle cx="617.7" cy="178.1" r="1.2" fill="#B388FF" opacity="0.32"/>
  <circle cx="645.1" cy="168.5" r="2.2" fill="#B388FF" opacity="0.19"/>
  <circle cx="532.2" cy="274.4" r="1.1" fill="#B388FF" opacity="0.05"/>

  <!-- Question marks at potential positions -->
  <text x="560" y="160" fill="#B388FF" font-size="14" opacity="0.6">?</text>
  <text x="650" y="180" fill="#B388FF" font-size="14" opacity="0.4">?</text>
  <text x="580" y="270" fill="#B388FF" font-size="14" opacity="0.5">?</text>
  <text x="640" y="240" fill="#B388FF" font-size="14" opacity="0.3">?</text>

  <text x="600" y="330" text-anchor="middle" fill="#B388FF80" font-size="12">No definite position until measured.</text>
  <text x="600" y="348" text-anchor="middle" fill="#B388FF80" font-size="12">Only a cloud of probabilities.</text>

  <!-- Bottom annotation -->
  <text x="400" y="385" text-anchor="middle" fill="#ffffff40" font-size="12">Heisenberg: "Electrons don't always exist. They only exist when they interact with something."</text>

</svg>