<?xml version="1.0" encoding="UTF-8"?>
<svg xmlns="http://www.w3.org/2000/svg" viewBox="0 0 900 350" font-family="'Segoe UI', Arial, sans-serif">
  <defs>
    <linearGradient id="bg3" x1="0" y1="0" x2="0" y2="1">
      <stop offset="0%" stop-color="#0a0e27"/>
      <stop offset="100%" stop-color="#1a1e3a"/>
    </linearGradient>
  </defs>
  <rect width="900" height="350" fill="url(#bg3)" rx="12"/>

  <text x="450" y="35" text-anchor="middle" fill="#fff" font-size="20" font-weight="bold">PLANCK STAR: THE BOUNCE</text>
  <text x="450" y="55" text-anchor="middle" fill="#ffffff60" font-size="13">Loop quantum gravity says nothing can crush to a point</text>
  <circle cx="100" cy="175" r="50" fill="#FFD700" opacity="0.2"/>
  <circle cx="100" cy="175" r="50" fill="none" stroke="#FFD700" stroke-width="2" opacity="0.6"/>
  <text x="100" y="250" text-anchor="middle" fill="#FFD700" font-size="13" font-weight="bold">Star</text>
  <circle cx="280" cy="175" r="30" fill="#FF6B6B" opacity="0.2"/>
  <circle cx="280" cy="175" r="30" fill="none" stroke="#FF6B6B" stroke-width="2" opacity="0.6"/>
  <text x="280" y="230" text-anchor="middle" fill="#FF6B6B" font-size="13" font-weight="bold">Collapse</text>
  <circle cx="450" cy="175" r="8" fill="#B388FF" opacity="0.2"/>
  <circle cx="450" cy="175" r="8" fill="none" stroke="#B388FF" stroke-width="2" opacity="0.6"/>
  <text x="450" y="208" text-anchor="middle" fill="#B388FF" font-size="13" font-weight="bold">Planck Star</text>
  <circle cx="620" cy="175" r="25" fill="#69F0AE" opacity="0.2"/>
  <circle cx="620" cy="175" r="25" fill="none" stroke="#69F0AE" stroke-width="2" opacity="0.6"/>
  <text x="620" y="225" text-anchor="middle" fill="#69F0AE" font-size="13" font-weight="bold">Bounce</text>
  <circle cx="800" cy="175" r="50" fill="#FFEB3B" opacity="0.2"/>
  <circle cx="800" cy="175" r="50" fill="none" stroke="#FFEB3B" stroke-width="2" opacity="0.6"/>
  <text x="800" y="250" text-anchor="middle" fill="#FFEB3B" font-size="13" font-weight="bold">Explosion</text>
  <line x1="155" y1="175" x2="245" y2="175" stroke="#FF6B6B" stroke-width="1.5" opacity="0.4"/>
  <polygon points="243,171 250,175 243,179" fill="#FF6B6B" opacity="0.4"/>
  <line x1="315" y1="175" x2="435" y2="175" stroke="#B388FF" stroke-width="1.5" opacity="0.4"/>
  <polygon points="433,171 440,175 433,179" fill="#B388FF" opacity="0.4"/>
  <line x1="465" y1="175" x2="590" y2="175" stroke="#69F0AE" stroke-width="1.5" opacity="0.4"/>
  <polygon points="588,171 595,175 588,179" fill="#69F0AE" opacity="0.4"/>
  <line x1="650" y1="175" x2="745" y2="175" stroke="#FFEB3B" stroke-width="1.5" opacity="0.4"/>
  <polygon points="743,171 750,175 743,179" fill="#FFEB3B" opacity="0.4"/>
  <circle cx="450" cy="175" r="20" fill="#B388FF" opacity="0.08"/>
  <text x="450" y="240" text-anchor="middle" fill="#B388FF80" font-size="10">Quantum repulsion prevents</text>
  <text x="450" y="254" text-anchor="middle" fill="#B388FF80" font-size="10">infinite compression</text>
  <line x1="850" y1="175" x2="870" y2="175" stroke="#FFEB3B" stroke-width="1" opacity="0.3"/>
  <line x1="843" y1="200" x2="861" y2="210" stroke="#FFEB3B" stroke-width="1" opacity="0.3"/>
  <line x1="825" y1="218" x2="835" y2="236" stroke="#FFEB3B" stroke-width="1" opacity="0.3"/>
  <line x1="800" y1="225" x2="800" y2="245" stroke="#FFEB3B" stroke-width="1" opacity="0.3"/>
  <line x1="775" y1="218" x2="765" y2="236" stroke="#FFEB3B" stroke-width="1" opacity="0.3"/>
  <line x1="757" y1="200" x2="739" y2="210" stroke="#FFEB3B" stroke-width="1" opacity="0.3"/>
  <line x1="750" y1="175" x2="730" y2="175" stroke="#FFEB3B" stroke-width="1" opacity="0.3"/>
  <line x1="757" y1="150" x2="739" y2="140" stroke="#FFEB3B" stroke-width="1" opacity="0.3"/>
  <line x1="775" y1="132" x2="765" y2="114" stroke="#FFEB3B" stroke-width="1" opacity="0.3"/>
  <line x1="800" y1="125" x2="800" y2="105" stroke="#FFEB3B" stroke-width="1" opacity="0.3"/>
  <line x1="825" y1="132" x2="835" y2="114" stroke="#FFEB3B" stroke-width="1" opacity="0.3"/>
  <line x1="843" y1="150" x2="861" y2="140" stroke="#FFEB3B" stroke-width="1" opacity="0.3"/>

  <!-- Comparison -->
  <rect x="60" y="280" width="780" height="50" fill="#ffffff06" rx="6"/>
  <text x="250" y="305" text-anchor="middle" fill="#FF6B6B80" font-size="11">General Relativity: collapses to a singularity (infinite density, equations break)</text>
  <text x="650" y="305" text-anchor="middle" fill="#69F0AE80" font-size="11">Loop QG: bounces at the Planck scale (no infinities)</text>
  <text x="450" y="322" text-anchor="middle" fill="#ffffff30" font-size="10">A black hole is a rebounding star viewed in extreme slow motion.</text>

</svg>