<?xml version="1.0" encoding="UTF-8"?>
<svg xmlns="http://www.w3.org/2000/svg" viewBox="0 0 800 350" font-family="'Segoe UI', Arial, sans-serif">
  <defs>
    <linearGradient id="bg4" x1="0" y1="0" x2="0" y2="1">
      <stop offset="0%" stop-color="#0a0e27"/>
      <stop offset="100%" stop-color="#1a1e3a"/>
    </linearGradient>
  </defs>
  <rect width="800" height="350" fill="url(#bg4)" rx="12"/>

  <text x="400" y="35" text-anchor="middle" fill="#fff" font-size="20" font-weight="bold">THE BIG BOUNCE</text>
  <text x="400" y="55" text-anchor="middle" fill="#ffffff60" font-size="13">What if the Big Bang wasn't the beginning, but a transition?</text>
  <line x1="250" y1="80" x2="550" y2="80" stroke="#FF6B6B" stroke-width="1" opacity="0.25"/>
  <line x1="277" y1="84" x2="523" y2="84" stroke="#FF6B6B" stroke-width="1" opacity="0.24"/>
  <line x1="289" y1="88" x2="511" y2="88" stroke="#FF6B6B" stroke-width="1" opacity="0.24"/>
  <line x1="297" y1="92" x2="503" y2="92" stroke="#FF6B6B" stroke-width="1" opacity="0.24"/>
  <line x1="305" y1="96" x2="495" y2="96" stroke="#FF6B6B" stroke-width="1" opacity="0.23"/>
  <line x1="311" y1="100" x2="489" y2="100" stroke="#FF6B6B" stroke-width="1" opacity="0.23"/>
  <line x1="317" y1="104" x2="483" y2="104" stroke="#FF6B6B" stroke-width="1" opacity="0.22"/>
  <line x1="322" y1="108" x2="478" y2="108" stroke="#FF6B6B" stroke-width="1" opacity="0.21"/>
  <line x1="327" y1="112" x2="473" y2="112" stroke="#FF6B6B" stroke-width="1" opacity="0.21"/>
  <line x1="332" y1="116" x2="468" y2="116" stroke="#FF6B6B" stroke-width="1" opacity="0.21"/>
  <line x1="337" y1="120" x2="463" y2="120" stroke="#FF6B6B" stroke-width="1" opacity="0.20"/>
  <line x1="341" y1="124" x2="459" y2="124" stroke="#FF6B6B" stroke-width="1" opacity="0.20"/>
  <line x1="345" y1="128" x2="455" y2="128" stroke="#FF6B6B" stroke-width="1" opacity="0.19"/>
  <line x1="349" y1="132" x2="451" y2="132" stroke="#FF6B6B" stroke-width="1" opacity="0.18"/>
  <line x1="352" y1="136" x2="448" y2="136" stroke="#FF6B6B" stroke-width="1" opacity="0.18"/>
  <line x1="356" y1="140" x2="444" y2="140" stroke="#FF6B6B" stroke-width="1" opacity="0.17"/>
  <line x1="360" y1="144" x2="440" y2="144" stroke="#FF6B6B" stroke-width="1" opacity="0.17"/>
  <line x1="363" y1="148" x2="437" y2="148" stroke="#FF6B6B" stroke-width="1" opacity="0.17"/>
  <line x1="366" y1="152" x2="434" y2="152" stroke="#FF6B6B" stroke-width="1" opacity="0.16"/>
  <line x1="369" y1="156" x2="431" y2="156" stroke="#FF6B6B" stroke-width="1" opacity="0.15"/>
  <line x1="372" y1="160" x2="428" y2="160" stroke="#FF6B6B" stroke-width="1" opacity="0.15"/>
  <line x1="375" y1="164" x2="425" y2="164" stroke="#FF6B6B" stroke-width="1" opacity="0.15"/>
  <line x1="378" y1="168" x2="422" y2="168" stroke="#FF6B6B" stroke-width="1" opacity="0.14"/>
  <line x1="381" y1="172" x2="419" y2="172" stroke="#FF6B6B" stroke-width="1" opacity="0.14"/>
  <line x1="384" y1="176" x2="416" y2="176" stroke="#FF6B6B" stroke-width="1" opacity="0.13"/>
  <line x1="387" y1="180" x2="413" y2="180" stroke="#FF6B6B" stroke-width="1" opacity="0.12"/>
  <line x1="390" y1="184" x2="410" y2="184" stroke="#FF6B6B" stroke-width="1" opacity="0.12"/>
  <line x1="392" y1="188" x2="408" y2="188" stroke="#FF6B6B" stroke-width="1" opacity="0.12"/>
  <line x1="395" y1="192" x2="405" y2="192" stroke="#FF6B6B" stroke-width="1" opacity="0.11"/>
  <line x1="397" y1="196" x2="403" y2="196" stroke="#FF6B6B" stroke-width="1" opacity="0.11"/>
  <line x1="400" y1="200" x2="400" y2="200" stroke="#69F0AE" stroke-width="1" opacity="0.10"/>
  <line x1="373" y1="204" x2="427" y2="204" stroke="#69F0AE" stroke-width="1" opacity="0.11"/>
  <line x1="361" y1="208" x2="439" y2="208" stroke="#69F0AE" stroke-width="1" opacity="0.11"/>
  <line x1="353" y1="212" x2="447" y2="212" stroke="#69F0AE" stroke-width="1" opacity="0.12"/>
  <line x1="345" y1="216" x2="455" y2="216" stroke="#69F0AE" stroke-width="1" opacity="0.12"/>
  <line x1="339" y1="220" x2="461" y2="220" stroke="#69F0AE" stroke-width="1" opacity="0.12"/>
  <line x1="333" y1="224" x2="467" y2="224" stroke="#69F0AE" stroke-width="1" opacity="0.13"/>
  <line x1="328" y1="228" x2="472" y2="228" stroke="#69F0AE" stroke-width="1" opacity="0.14"/>
  <line x1="323" y1="232" x2="477" y2="232" stroke="#69F0AE" stroke-width="1" opacity="0.14"/>
  <line x1="318" y1="236" x2="482" y2="236" stroke="#69F0AE" stroke-width="1" opacity="0.15"/>
  <line x1="313" y1="240" x2="487" y2="240" stroke="#69F0AE" stroke-width="1" opacity="0.15"/>
  <line x1="309" y1="244" x2="491" y2="244" stroke="#69F0AE" stroke-width="1" opacity="0.15"/>
  <line x1="305" y1="248" x2="495" y2="248" stroke="#69F0AE" stroke-width="1" opacity="0.16"/>
  <line x1="301" y1="252" x2="499" y2="252" stroke="#69F0AE" stroke-width="1" opacity="0.17"/>
  <line x1="298" y1="256" x2="502" y2="256" stroke="#69F0AE" stroke-width="1" opacity="0.17"/>
  <line x1="294" y1="260" x2="506" y2="260" stroke="#69F0AE" stroke-width="1" opacity="0.17"/>
  <line x1="290" y1="264" x2="510" y2="264" stroke="#69F0AE" stroke-width="1" opacity="0.18"/>
  <line x1="287" y1="268" x2="513" y2="268" stroke="#69F0AE" stroke-width="1" opacity="0.18"/>
  <line x1="284" y1="272" x2="516" y2="272" stroke="#69F0AE" stroke-width="1" opacity="0.19"/>
  <line x1="281" y1="276" x2="519" y2="276" stroke="#69F0AE" stroke-width="1" opacity="0.20"/>
  <line x1="278" y1="280" x2="522" y2="280" stroke="#69F0AE" stroke-width="1" opacity="0.20"/>
  <line x1="275" y1="284" x2="525" y2="284" stroke="#69F0AE" stroke-width="1" opacity="0.21"/>
  <line x1="272" y1="288" x2="528" y2="288" stroke="#69F0AE" stroke-width="1" opacity="0.21"/>
  <line x1="269" y1="292" x2="531" y2="292" stroke="#69F0AE" stroke-width="1" opacity="0.22"/>
  <line x1="266" y1="296" x2="534" y2="296" stroke="#69F0AE" stroke-width="1" opacity="0.22"/>
  <line x1="263" y1="300" x2="537" y2="300" stroke="#69F0AE" stroke-width="1" opacity="0.23"/>
  <line x1="260" y1="304" x2="540" y2="304" stroke="#69F0AE" stroke-width="1" opacity="0.23"/>
  <line x1="258" y1="308" x2="542" y2="308" stroke="#69F0AE" stroke-width="1" opacity="0.24"/>
  <line x1="255" y1="312" x2="545" y2="312" stroke="#69F0AE" stroke-width="1" opacity="0.24"/>
  <line x1="253" y1="316" x2="547" y2="316" stroke="#69F0AE" stroke-width="1" opacity="0.24"/>
  <polyline points="250,80 278,84 289,88 298,92 305,96 312,100 318,104 323,108 328,113 333,117 337,121 342,125 346,129 350,133 353,137 357,141 360,145 364,149 367,153 370,157 374,161 377,165 380,169 382,174 385,178 388,182 391,186 394,190 396,194 399,198 380,202 366,206 356,210 348,214 341,218 335,222 330,226 324,231 319,235 315,239 311,243 306,247 302,251 299,255 295,259 291,263 288,267 284,271 281,275 278,279 275,283 272,287 269,292 266,296 263,300 261,304 258,308 255,312 253,316 250,320" fill="none" stroke="#ffffff30" stroke-width="1.5"/>
  <polyline points="550,80 522,84 511,88 502,92 495,96 488,100 482,104 477,108 472,113 467,117 463,121 458,125 454,129 450,133 447,137 443,141 440,145 436,149 433,153 430,157 426,161 423,165 420,169 418,174 415,178 412,182 409,186 406,190 404,194 401,198 420,202 434,206 444,210 452,214 459,218 465,222 470,226 476,231 481,235 485,239 489,243 494,247 498,251 501,255 505,259 509,263 512,267 516,271 519,275 522,279 525,283 528,287 531,292 534,296 537,300 539,304 542,308 545,312 547,316 550,320" fill="none" stroke="#ffffff30" stroke-width="1.5"/>
  <circle cx="400" cy="200" r="12" fill="#B388FF" opacity="0.15"/>
  <circle cx="400" cy="200" r="5" fill="#B388FF" opacity="0.4"/>
  <text x="180" y="100" fill="#FF6B6B" font-size="14" font-weight="bold">PRIOR UNIVERSE</text>
  <text x="180" y="118" fill="#FF6B6B80" font-size="11">contracting</text>
  <text x="470" y="205" fill="#B388FF" font-size="12" font-weight="bold">BOUNCE</text>
  <text x="470" y="220" fill="#B388FF80" font-size="10">quantum repulsion</text>
  <text x="540" y="305" fill="#69F0AE" font-size="14" font-weight="bold">OUR UNIVERSE</text>
  <text x="540" y="323" fill="#69F0AE80" font-size="11">expanding</text>
  <line x1="380" y1="85" x2="395" y2="185" stroke="#FF6B6B" stroke-width="1.5" opacity="0.4"/>
  <polygon points="392,180 397,187 399,178" fill="#FF6B6B" opacity="0.4"/>
  <line x1="405" y1="215" x2="420" y2="315" stroke="#69F0AE" stroke-width="1.5" opacity="0.4"/>
  <polygon points="417,310 422,318 424,308" fill="#69F0AE" opacity="0.4"/>

</svg>