<svg xmlns="http://www.w3.org/2000/svg" viewBox="0 0 1100 450" font-family="'Segoe UI', system-ui, sans-serif">
  <defs>
    <linearGradient id="bgGrad2" x1="0" y1="0" x2="0" y2="1">
      <stop offset="0%" stop-color="#0a0e27"/>
      <stop offset="100%" stop-color="#131833"/>
    </linearGradient>
    <filter id="glow2">
      <feGaussianBlur stdDeviation="2" result="blur"/>
      <feMerge><feMergeNode in="blur"/><feMergeNode in="SourceGraphic"/></feMerge>
    </filter>
  </defs>
  <rect width="1100" height="450" fill="url(#bgGrad2)"/>

  <!-- Title -->
  <text x="550" y="38" text-anchor="middle" fill="#e8e8e8" font-size="22" font-weight="bold">Book Structure: Six Fronts of the Cancer War</text>
  <text x="550" y="58" text-anchor="middle" fill="#8892b0" font-size="13">Each part opens a new front while earlier battles continue</text>
  <rect x="65" y="85" width="145" height="185" rx="10" fill="#131833" stroke="#FF6B6B" stroke-width="2" opacity="0.9"/>
  <rect x="65" y="85" width="145" height="4" rx="2" fill="#FF6B6B"/>
  <text x="138" y="113" text-anchor="middle" fill="#FF6B6B" font-size="12" font-weight="bold">Part I</text>
  <text x="138" y="140" text-anchor="middle" fill="#e8e8e8" font-size="18" font-weight="bold">Origins</text>
  <line x1="80" y1="153" x2="195" y2="153" stroke="#FF6B6B" stroke-width="0.5" opacity="0.4"/>
  <text x="138" y="175" text-anchor="middle" fill="#8892b0" font-size="11">Ancient history</text>
  <text x="138" y="191" text-anchor="middle" fill="#8892b0" font-size="11">+ first chemo</text>
  <text x="138" y="258" text-anchor="middle" fill="#FF6B6B" font-size="10" opacity="0.6">1947</text>
  <line x1="212" y1="178" x2="228" y2="178" stroke="#8892b0" stroke-width="1.5" opacity="0.5"/>
  <polygon points="228,174 234,178 228,182" fill="#8892b0" opacity="0.5"/>
  <rect x="230" y="85" width="145" height="185" rx="10" fill="#131833" stroke="#FF9800" stroke-width="2" opacity="0.9"/>
  <rect x="230" y="85" width="145" height="4" rx="2" fill="#FF9800"/>
  <text x="302" y="113" text-anchor="middle" fill="#FF9800" font-size="12" font-weight="bold">Part II</text>
  <text x="302" y="140" text-anchor="middle" fill="#e8e8e8" font-size="18" font-weight="bold">The War</text>
  <line x1="245" y1="153" x2="360" y2="153" stroke="#FF9800" stroke-width="0.5" opacity="0.4"/>
  <text x="302" y="175" text-anchor="middle" fill="#8892b0" font-size="11">Political crusade</text>
  <text x="302" y="191" text-anchor="middle" fill="#8892b0" font-size="11">+ combo chemo</text>
  <text x="302" y="258" text-anchor="middle" fill="#FF9800" font-size="10" opacity="0.6">1950s-70s</text>
  <line x1="377" y1="178" x2="393" y2="178" stroke="#8892b0" stroke-width="1.5" opacity="0.5"/>
  <polygon points="393,174 399,178 393,182" fill="#8892b0" opacity="0.5"/>
  <rect x="395" y="85" width="145" height="185" rx="10" fill="#131833" stroke="#FFEB3B" stroke-width="2" opacity="0.9"/>
  <rect x="395" y="85" width="145" height="4" rx="2" fill="#FFEB3B"/>
  <text x="468" y="113" text-anchor="middle" fill="#FFEB3B" font-size="12" font-weight="bold">Part III</text>
  <text x="468" y="140" text-anchor="middle" fill="#e8e8e8" font-size="18" font-weight="bold">Reckoning</text>
  <line x1="410" y1="153" x2="525" y2="153" stroke="#FFEB3B" stroke-width="0.5" opacity="0.4"/>
  <text x="468" y="175" text-anchor="middle" fill="#8892b0" font-size="11">Evidence-based</text>
  <text x="468" y="191" text-anchor="middle" fill="#8892b0" font-size="11">medicine</text>
  <text x="468" y="258" text-anchor="middle" fill="#FFEB3B" font-size="10" opacity="0.6">1970s-80s</text>
  <line x1="542" y1="178" x2="558" y2="178" stroke="#8892b0" stroke-width="1.5" opacity="0.5"/>
  <polygon points="558,174 564,178 558,182" fill="#8892b0" opacity="0.5"/>
  <rect x="560" y="85" width="145" height="185" rx="10" fill="#131833" stroke="#69F0AE" stroke-width="2" opacity="0.9"/>
  <rect x="560" y="85" width="145" height="4" rx="2" fill="#69F0AE"/>
  <text x="632" y="113" text-anchor="middle" fill="#69F0AE" font-size="12" font-weight="bold">Part IV</text>
  <text x="632" y="140" text-anchor="middle" fill="#e8e8e8" font-size="18" font-weight="bold">Prevention</text>
  <line x1="575" y1="153" x2="690" y2="153" stroke="#69F0AE" stroke-width="0.5" opacity="0.4"/>
  <text x="632" y="175" text-anchor="middle" fill="#8892b0" font-size="11">Tobacco wars</text>
  <text x="632" y="191" text-anchor="middle" fill="#8892b0" font-size="11">+ screening</text>
  <text x="632" y="258" text-anchor="middle" fill="#69F0AE" font-size="10" opacity="0.6">1950s-90s</text>
  <line x1="707" y1="178" x2="723" y2="178" stroke="#8892b0" stroke-width="1.5" opacity="0.5"/>
  <polygon points="723,174 729,178 723,182" fill="#8892b0" opacity="0.5"/>
  <rect x="725" y="85" width="145" height="185" rx="10" fill="#131833" stroke="#4FC3F7" stroke-width="2" opacity="0.9"/>
  <rect x="725" y="85" width="145" height="4" rx="2" fill="#4FC3F7"/>
  <text x="798" y="113" text-anchor="middle" fill="#4FC3F7" font-size="12" font-weight="bold">Part V</text>
  <text x="798" y="140" text-anchor="middle" fill="#e8e8e8" font-size="18" font-weight="bold">Molecular</text>
  <line x1="740" y1="153" x2="855" y2="153" stroke="#4FC3F7" stroke-width="0.5" opacity="0.4"/>
  <text x="798" y="175" text-anchor="middle" fill="#8892b0" font-size="11">Oncogenes</text>
  <text x="798" y="191" text-anchor="middle" fill="#8892b0" font-size="11">+ tumor suppressors</text>
  <text x="798" y="258" text-anchor="middle" fill="#4FC3F7" font-size="10" opacity="0.6">1970s-2000</text>
  <line x1="872" y1="178" x2="888" y2="178" stroke="#8892b0" stroke-width="1.5" opacity="0.5"/>
  <polygon points="888,174 894,178 888,182" fill="#8892b0" opacity="0.5"/>
  <rect x="890" y="85" width="145" height="185" rx="10" fill="#131833" stroke="#B388FF" stroke-width="2" opacity="0.9"/>
  <rect x="890" y="85" width="145" height="4" rx="2" fill="#B388FF"/>
  <text x="962" y="113" text-anchor="middle" fill="#B388FF" font-size="12" font-weight="bold">Part VI</text>
  <text x="962" y="140" text-anchor="middle" fill="#e8e8e8" font-size="18" font-weight="bold">Targeted</text>
  <line x1="905" y1="153" x2="1020" y2="153" stroke="#B388FF" stroke-width="0.5" opacity="0.4"/>
  <text x="962" y="175" text-anchor="middle" fill="#8892b0" font-size="11">Gleevec, Herceptin</text>
  <text x="962" y="191" text-anchor="middle" fill="#8892b0" font-size="11">+ precision drugs</text>
  <text x="962" y="258" text-anchor="middle" fill="#B388FF" font-size="10" opacity="0.6">2000s</text>
  <line x1="65" y1="310" x2="1035" y2="310" stroke="#FF80AB" stroke-width="2" stroke-dasharray="8,4" opacity="0.6"/>
  <circle cx="138" cy="310" r="4" fill="#FF80AB" opacity="0.8"/>
  <circle cx="302" cy="310" r="4" fill="#FF80AB" opacity="0.8"/>
  <circle cx="468" cy="310" r="4" fill="#FF80AB" opacity="0.8"/>
  <circle cx="632" cy="310" r="4" fill="#FF80AB" opacity="0.8"/>
  <circle cx="798" cy="310" r="4" fill="#FF80AB" opacity="0.8"/>
  <circle cx="962" cy="310" r="4" fill="#FF80AB" opacity="0.8"/>
  <line x1="138" y1="270" x2="138" y2="310" stroke="#FF80AB" stroke-width="1" stroke-dasharray="3,3" opacity="0.3"/>
  <line x1="302" y1="270" x2="302" y2="310" stroke="#FF80AB" stroke-width="1" stroke-dasharray="3,3" opacity="0.3"/>
  <line x1="468" y1="270" x2="468" y2="310" stroke="#FF80AB" stroke-width="1" stroke-dasharray="3,3" opacity="0.3"/>
  <line x1="632" y1="270" x2="632" y2="310" stroke="#FF80AB" stroke-width="1" stroke-dasharray="3,3" opacity="0.3"/>
  <line x1="798" y1="270" x2="798" y2="310" stroke="#FF80AB" stroke-width="1" stroke-dasharray="3,3" opacity="0.3"/>
  <line x1="962" y1="270" x2="962" y2="310" stroke="#FF80AB" stroke-width="1" stroke-dasharray="3,3" opacity="0.3"/>
  <text x="55" y="315" text-anchor="end" fill="#FF80AB" font-size="12" font-weight="bold">Carla Reed</text>
  <text x="55" y="330" text-anchor="end" fill="#8892b0" font-size="10">present-day patient thread</text>
</svg>