<?xml version="1.0" encoding="UTF-8"?>
<svg xmlns="http://www.w3.org/2000/svg" viewBox="0 0 900 420" font-family="'Segoe UI', Arial, sans-serif">
  <defs>
    <linearGradient id="bg" x1="0" y1="0" x2="0" y2="1">
      <stop offset="0%" stop-color="#0a0e27"/>
      <stop offset="100%" stop-color="#1a1e3a"/>
    </linearGradient>
    <radialGradient id="sun1" cx="50%" cy="50%" r="50%">
      <stop offset="0%" stop-color="#FFD700"/>
      <stop offset="100%" stop-color="#FF8C00"/>
    </radialGradient>
    <radialGradient id="sun2" cx="50%" cy="50%" r="50%">
      <stop offset="0%" stop-color="#FFD700"/>
      <stop offset="100%" stop-color="#FF8C00"/>
    </radialGradient>
    <radialGradient id="earth" cx="50%" cy="50%" r="50%">
      <stop offset="0%" stop-color="#4FC3F7"/>
      <stop offset="100%" stop-color="#1565C0"/>
    </radialGradient>
    <marker id="arrowhead" markerWidth="10" markerHeight="7" refX="10" refY="3.5" orient="auto">
      <polygon points="0 0, 10 3.5, 0 7" fill="#FF6B6B"/>
    </marker>
  </defs>

  <!-- Background -->
  <rect width="900" height="420" fill="url(#bg)" rx="12"/>

  <!-- Divider -->
  <line x1="450" y1="50" x2="450" y2="390" stroke="#ffffff20" stroke-width="2" stroke-dasharray="8,6"/>

  <!-- Title -->
  <text x="225" y="45" text-anchor="middle" fill="#FF6B6B" font-size="20" font-weight="bold">NEWTON</text>
  <text x="225" y="65" text-anchor="middle" fill="#ffffff80" font-size="13">Invisible force through empty space</text>
  <text x="675" y="45" text-anchor="middle" fill="#69F0AE" font-size="20" font-weight="bold">EINSTEIN</text>
  <text x="675" y="65" text-anchor="middle" fill="#ffffff80" font-size="13">Space itself is curved by matter</text>

  <!-- ═══ NEWTON SIDE ═══ -->
  <!-- Grid (flat space) -->
  <g stroke="#ffffff15" stroke-width="1">
    <line x1="30" y1="120" x2="420" y2="120"/>
    <line x1="30" y1="160" x2="420" y2="160"/>
    <line x1="30" y1="200" x2="420" y2="200"/>
    <line x1="30" y1="240" x2="420" y2="240"/>
    <line x1="30" y1="280" x2="420" y2="280"/>
    <line x1="30" y1="320" x2="420" y2="320"/>
    <line x1="30" y1="360" x2="420" y2="360"/>
    <line x1="60" y1="90" x2="60" y2="390"/>
    <line x1="110" y1="90" x2="110" y2="390"/>
    <line x1="160" y1="90" x2="160" y2="390"/>
    <line x1="210" y1="90" x2="210" y2="390"/>
    <line x1="260" y1="90" x2="260" y2="390"/>
    <line x1="310" y1="90" x2="310" y2="390"/>
    <line x1="360" y1="90" x2="360" y2="390"/>
    <line x1="410" y1="90" x2="410" y2="390"/>
  </g>

  <!-- Sun -->
  <circle cx="225" cy="230" r="35" fill="url(#sun1)" opacity="0.95"/>
  <text x="225" y="236" text-anchor="middle" fill="#000" font-size="14" font-weight="bold">Sun</text>

  <!-- Earth -->
  <circle cx="370" cy="150" r="14" fill="url(#earth)"/>
  <text x="370" y="135" text-anchor="middle" fill="#fff" font-size="12">Earth</text>

  <!-- Force arrows -->
  <line x1="355" y1="155" x2="270" y2="220" stroke="#FF6B6B" stroke-width="2.5" marker-end="url(#arrowhead)"/>
  <text x="290" y="178" fill="#FF6B6B" font-size="11" transform="rotate(-30, 290, 178)">Mysterious Force?</text>

  <!-- Question -->
  <text x="225" y="395" text-anchor="middle" fill="#FF6B6B99" font-size="12" font-style="italic">"How does force act across empty space?"</text>

  <!-- ═══ EINSTEIN SIDE ═══ -->
  <!-- Curved grid -->
  <g stroke="#69F0AE40" stroke-width="1" fill="none">    <polyline points="480,122.6 485,122.7 490,122.8 495,123.0 500,123.1 505,123.2 510,123.3 515,123.5 520,123.6 525,123.8 530,124.0 535,124.2 540,124.3 545,124.5 550,124.7 555,125.0 560,125.2 565,125.4 570,125.7 575,125.9 580,126.2 585,126.5 590,126.8 595,127.1 600,127.4 605,127.7 610,128.0 615,128.4 620,128.7 625,129.0 630,129.3 635,129.6 640,129.8 645,130.1 650,130.3 655,130.5 660,130.6 665,130.7 670,130.8 675,130.8 680,130.8 685,130.7 690,130.6 695,130.5 700,130.3 705,130.1 710,129.8 715,129.6 720,129.3 725,129.0 730,128.7 735,128.4 740,128.0 745,127.7 750,127.4 755,127.1 760,126.8 765,126.5 770,126.2 775,125.9 780,125.7 785,125.4 790,125.2 795,125.0 800,124.7 805,124.5 810,124.3 815,124.2 820,124.0 825,123.8 830,123.6 835,123.5 840,123.3 845,123.2 850,123.1 855,123.0 860,122.8 865,122.7"/>
    <polyline points="480,162.0 485,162.0 490,162.1 495,162.2 500,162.4 505,162.5 510,162.6 515,162.7 520,162.9 525,163.1 530,163.2 535,163.4 540,163.6 545,163.8 550,164.1 555,164.3 560,164.6 565,164.9 570,165.2 575,165.6 580,166.0 585,166.4 590,166.9 595,167.4 600,167.9 605,168.5 610,169.1 615,169.8 620,170.5 625,171.2 630,172.0 635,172.7 640,173.5 645,174.2 650,174.9 655,175.6 660,176.1 665,176.5 670,176.7 675,176.8 680,176.7 685,176.5 690,176.1 695,175.6 700,174.9 705,174.2 710,173.5 715,172.7 720,172.0 725,171.2 730,170.5 735,169.8 740,169.1 745,168.5 750,167.9 755,167.4 760,166.9 765,166.4 770,166.0 775,165.6 780,165.2 785,164.9 790,164.6 795,164.3 800,164.1 805,163.8 810,163.6 815,163.4 820,163.2 825,163.1 830,162.9 835,162.7 840,162.6 845,162.5 850,162.4 855,162.2 860,162.1 865,162.0"/>
    <polyline points="480,200.9 485,201.0 490,201.0 495,201.1 500,201.1 505,201.2 510,201.3 515,201.4 520,201.4 525,201.5 530,201.6 535,201.7 540,201.9 545,202.0 550,202.2 555,202.3 560,202.5 565,202.7 570,203.0 575,203.3 580,203.6 585,204.0 590,204.4 595,204.9 600,205.4 605,206.1 610,206.9 615,207.8 620,208.9 625,210.3 630,211.9 635,213.8 640,216.2 645,218.9 650,222.2 655,225.7 660,229.4 665,232.7 670,235.1 675,236.0 680,235.1 685,232.7 690,229.4 695,225.7 700,222.2 705,218.9 710,216.2 715,213.8 720,211.9 725,210.3 730,208.9 735,207.8 740,206.9 745,206.1 750,205.4 755,204.9 760,204.4 765,204.0 770,203.6 775,203.3 780,203.0 785,202.7 790,202.5 795,202.3 800,202.2 805,202.0 810,201.9 815,201.7 820,201.6 825,201.5 830,201.4 835,201.4 840,201.3 845,201.2 850,201.1 855,201.1 860,201.0 865,201.0"/>
    <polyline points="480,239.7 485,239.7 490,239.7 495,239.6 500,239.6 505,239.6 510,239.6 515,239.5 520,239.5 525,239.5 530,239.4 535,239.4 540,239.3 545,239.3 550,239.2 555,239.2 560,239.1 565,239.0 570,238.9 575,238.8 580,238.7 585,238.6 590,238.4 595,238.2 600,237.9 605,237.6 610,237.3 615,236.8 620,236.3 625,235.6 630,234.6 635,233.3 640,231.6 645,229.1 650,225.5 700,225.5 705,229.1 710,231.6 715,233.3 720,234.6 725,235.6 730,236.3 735,236.8 740,237.3 745,237.6 750,237.9 755,238.2 760,238.4 765,238.6 770,238.7 775,238.8 780,238.9 785,239.0 790,239.1 795,239.2 800,239.2 805,239.3 810,239.3 815,239.4 820,239.4 825,239.5 830,239.5 835,239.5 840,239.6 845,239.6 850,239.6 855,239.6 860,239.7 865,239.7"/>
    <polyline points="480,278.5 485,278.4 490,278.4 495,278.3 500,278.2 505,278.1 510,278.0 515,277.9 520,277.7 525,277.6 530,277.5 535,277.3 540,277.1 545,276.9 550,276.7 555,276.5 560,276.2 565,275.9 570,275.6 575,275.2 580,274.8 585,274.4 590,273.9 595,273.3 600,272.7 605,272.0 610,271.2 615,270.3 620,269.3 625,268.2 630,267.0 635,265.7 640,264.3 645,262.9 650,261.4 655,260.0 660,258.8 665,257.8 670,257.1 675,256.9 680,257.1 685,257.8 690,258.8 695,260.0 700,261.4 705,262.9 710,264.3 715,265.7 720,267.0 725,268.2 730,269.3 735,270.3 740,271.2 745,272.0 750,272.7 755,273.3 760,273.9 765,274.4 770,274.8 775,275.2 780,275.6 785,275.9 790,276.2 795,276.5 800,276.7 805,276.9 810,277.1 815,277.3 820,277.5 825,277.6 830,277.7 835,277.9 840,278.0 845,278.1 850,278.2 855,278.3 860,278.4 865,278.4"/>
    <polyline points="480,317.7 485,317.6 490,317.5 495,317.3 500,317.2 505,317.1 510,317.0 515,316.8 520,316.6 525,316.5 530,316.3 535,316.1 540,315.9 545,315.7 550,315.5 555,315.2 560,315.0 565,314.7 570,314.4 575,314.1 580,313.7 585,313.4 590,313.0 595,312.6 600,312.2 605,311.8 610,311.3 615,310.8 620,310.4 625,309.9 630,309.4 635,309.0 640,308.5 645,308.1 650,307.8 655,307.4 660,307.2 665,307.0 670,306.9 675,306.8 680,306.9 685,307.0 690,307.2 695,307.4 700,307.8 705,308.1 710,308.5 715,309.0 720,309.4 725,309.9 730,310.4 735,310.8 740,311.3 745,311.8 750,312.2 755,312.6 760,313.0 765,313.4 770,313.7 775,314.1 780,314.4 785,314.7 790,315.0 795,315.2 800,315.5 805,315.7 810,315.9 815,316.1 820,316.3 825,316.5 830,316.6 835,316.8 840,317.0 845,317.1 850,317.2 855,317.3 860,317.5 865,317.6"/>
    <polyline points="480,357.2 485,357.1 490,357.0 495,356.8 500,356.7 505,356.6 510,356.5 515,356.3 520,356.2 525,356.1 530,355.9 535,355.7 540,355.6 545,355.4 550,355.2 555,355.0 560,354.8 565,354.6 570,354.4 575,354.2 580,354.0 585,353.8 590,353.6 595,353.3 600,353.1 605,352.9 610,352.7 615,352.4 620,352.2 625,352.0 630,351.8 635,351.6 640,351.4 645,351.3 650,351.1 655,351.0 660,350.9 665,350.9 670,350.8 675,350.8 680,350.8 685,350.9 690,350.9 695,351.0 700,351.1 705,351.3 710,351.4 715,351.6 720,351.8 725,352.0 730,352.2 735,352.4 740,352.7 745,352.9 750,353.1 755,353.3 760,353.6 765,353.8 770,354.0 775,354.2 780,354.4 785,354.6 790,354.8 795,355.0 800,355.2 805,355.4 810,355.6 815,355.7 820,355.9 825,356.1 830,356.2 835,356.3 840,356.5 845,356.6 850,356.7 855,356.8 860,357.0 865,357.1"/>
    <polyline points="514.2,90 514.3,95 514.5,100 514.6,105 514.7,110 514.9,115 515.0,120 515.2,125 515.3,130 515.4,135 515.6,140 515.7,145 515.9,150 516.0,155 516.1,160 516.3,165 516.4,170 516.5,175 516.6,180 516.7,185 516.8,190 516.9,195 517.0,200 517.1,205 517.1,210 517.2,215 517.2,220 517.2,225 517.2,230 517.2,235 517.2,240 517.2,245 517.1,250 517.1,255 517.0,260 516.9,265 516.8,270 516.7,275 516.6,280 516.5,285 516.4,290 516.3,295 516.1,300 516.0,305 515.9,310 515.7,315 515.6,320 515.4,325 515.3,330 515.2,335 515.0,340 514.9,345 514.7,350 514.6,355 514.5,360 514.3,365 514.2,370 514.1,375 514.0,380 513.9,385"/>
    <polyline points="564.2,90 564.4,95 564.6,100 564.8,105 565.0,110 565.2,115 565.4,120 565.7,125 565.9,130 566.2,135 566.4,140 566.7,145 567.0,150 567.3,155 567.6,160 567.9,165 568.2,170 568.4,175 568.7,180 569.0,185 569.2,190 569.5,195 569.7,200 569.9,205 570.1,210 570.2,215 570.3,220 570.3,225 570.4,230 570.3,235 570.3,240 570.2,245 570.1,250 569.9,255 569.7,260 569.5,265 569.2,270 569.0,275 568.7,280 568.4,285 568.2,290 567.9,295 567.6,300 567.3,305 567.0,310 566.7,315 566.4,320 566.2,325 565.9,330 565.7,335 565.4,340 565.2,345 565.0,350 564.8,355 564.6,360 564.4,365 564.2,370 564.0,375 563.9,380 563.7,385"/>
    <polyline points="613.3,90 613.5,95 613.7,100 613.9,105 614.2,110 614.4,115 614.7,120 615.1,125 615.4,130 615.8,135 616.3,140 616.8,145 617.3,150 617.8,155 618.5,160 619.1,165 619.8,170 620.6,175 621.4,180 622.3,185 623.2,190 624.1,195 624.9,200 625.8,205 626.5,210 627.1,215 627.6,220 627.9,225 628.0,230 627.9,235 627.6,240 627.1,245 626.5,250 625.8,255 624.9,260 624.1,265 623.2,270 622.3,275 621.4,280 620.6,285 619.8,290 619.1,295 618.5,300 617.8,305 617.3,310 616.8,315 616.3,320 615.8,325 615.4,330 615.1,335 614.7,340 614.4,345 614.2,350 613.9,355 613.7,360 613.5,365 613.3,370 613.1,375 612.9,380 612.8,385"/>
    <polyline points="660.9,90 661.0,95 661.0,100 661.1,105 661.2,110 661.3,115 661.4,120 661.6,125 661.7,130 661.9,135 662.1,140 662.4,145 662.7,150 663.0,155 663.4,160 664.0,165 664.6,170 665.4,175 666.4,180 667.7,185 669.4,190 671.6,195 674.7,200 678.9,205 684.8,210 684.8,250 678.9,255 674.7,260 671.6,265 669.4,270 667.7,275 666.4,280 665.4,285 664.6,290 664.0,295 663.4,300 663.0,305 662.7,310 662.4,315 662.1,320 661.9,325 661.7,330 661.6,335 661.4,340 661.3,345 661.2,350 661.1,355 661.0,360 661.0,365 660.9,370 660.8,375 660.8,380 660.7,385"/>
    <polyline points="708.0,90 707.9,95 707.7,100 707.5,105 707.3,110 707.1,115 706.9,120 706.6,125 706.3,130 705.9,135 705.5,140 705.1,145 704.6,150 704.0,155 703.3,160 702.4,165 701.5,170 700.3,175 699.0,180 697.5,185 695.6,190 693.5,195 691.1,200 688.5,205 685.7,210 682.9,215 680.5,220 678.9,225 678.3,230 678.9,235 680.5,240 682.9,245 685.7,250 688.5,255 691.1,260 693.5,265 695.6,270 697.5,275 699.0,280 700.3,285 701.5,290 702.4,295 703.3,300 704.0,305 704.6,310 705.1,315 705.5,320 705.9,325 706.3,330 706.6,335 706.9,340 707.1,345 707.3,350 707.5,355 707.7,360 707.9,365 708.0,370 708.1,375 708.2,380 708.3,385"/>
    <polyline points="756.2,90 756.0,95 755.8,100 755.6,105 755.3,110 755.0,115 754.7,120 754.4,125 754.1,130 753.8,135 753.4,140 753.0,145 752.6,150 752.1,155 751.7,160 751.2,165 750.7,170 750.1,175 749.6,180 749.1,185 748.6,190 748.1,195 747.6,200 747.2,205 746.8,210 746.5,215 746.3,220 746.1,225 746.1,230 746.1,235 746.3,240 746.5,245 746.8,250 747.2,255 747.6,260 748.1,265 748.6,270 749.1,275 749.6,280 750.1,285 750.7,290 751.2,295 751.7,300 752.1,305 752.6,310 753.0,315 753.4,320 753.8,325 754.1,330 754.4,335 754.7,340 755.0,345 755.3,350 755.6,355 755.8,360 756.0,365 756.2,370 756.4,375 756.6,380 756.7,385"/>
    <polyline points="805.7,90 805.6,95 805.4,100 805.2,105 805.0,110 804.9,115 804.7,120 804.5,125 804.3,130 804.1,135 803.9,140 803.7,145 803.4,150 803.2,155 803.0,160 802.8,165 802.6,170 802.4,175 802.2,180 802.0,185 801.9,190 801.7,195 801.6,200 801.5,205 801.3,210 801.3,215 801.2,220 801.2,225 801.2,230 801.2,235 801.2,240 801.3,245 801.3,250 801.5,255 801.6,260 801.7,265 801.9,270 802.0,275 802.2,280 802.4,285 802.6,290 802.8,295 803.0,300 803.2,305 803.4,310 803.7,315 803.9,320 804.1,325 804.3,330 804.5,335 804.7,340 804.9,345 805.0,350 805.2,355 805.4,360 805.6,365 805.7,370 805.9,375 806.0,380 806.2,385"/>
    <polyline points="855.9,90 855.8,95 855.7,100 855.6,105 855.4,110 855.3,115 855.2,120 855.1,125 855.0,130 854.9,135 854.8,140 854.7,145 854.5,150 854.4,155 854.3,160 854.2,165 854.1,170 854.1,175 854.0,180 853.9,185 853.8,190 853.8,195 853.7,200 853.6,205 853.6,210 853.6,215 853.6,220 853.5,225 853.5,230 853.5,235 853.6,240 853.6,245 853.6,250 853.6,255 853.7,260 853.8,265 853.8,270 853.9,275 854.0,280 854.1,285 854.1,290 854.2,295 854.3,300 854.4,305 854.5,310 854.7,315 854.8,320 854.9,325 855.0,330 855.1,335 855.2,340 855.3,345 855.4,350 855.6,355 855.7,360 855.8,365 855.9,370 856.0,375 856.1,380 856.2,385"/>
  </g>

  <!-- Orbit path -->
  <ellipse cx="675" cy="230" rx="145" ry="100" fill="none" stroke="#4FC3F7" stroke-width="1" stroke-dasharray="6,4" opacity="0.4"/>

  <!-- Sun -->
  <circle cx="675" cy="230" r="35" fill="url(#sun2)" opacity="0.95"/>
  <text x="675" y="236" text-anchor="middle" fill="#000" font-size="14" font-weight="bold">Sun</text>

  <!-- Earth following the curve -->
  <circle cx="820" cy="200" r="14" fill="url(#earth)"/>
  <text x="820" y="185" text-anchor="middle" fill="#fff" font-size="12">Earth</text>

  <!-- Direction arrow on orbit -->
  <path d="M 810 140 Q 790 125 770 120" fill="none" stroke="#4FC3F7" stroke-width="1.5" marker-end="url(#arrowhead)"/>

  <!-- Annotation -->
  <text x="675" y="395" text-anchor="middle" fill="#69F0AE99" font-size="12" font-style="italic">"Earth follows the curve of bent space"</text>

</svg>