<?xml version="1.0" encoding="UTF-8"?>
<svg xmlns="http://www.w3.org/2000/svg" viewBox="0 0 800 380" width="800" height="380">
  <title>The Bone Marrow Factory: On and Off Switches</title>
  <defs>
    <style>
      @import url('https://fonts.googleapis.com/css2?family=Inter:wght@400;600;700&amp;display=swap');
      text { font-family: 'Inter', 'Segoe UI', system-ui, sans-serif; }
    </style>
    <linearGradient id="bgGrad" x1="0" y1="0" x2="0" y2="1">
      <stop offset="0%" stop-color="#0a0e27"/>
      <stop offset="100%" stop-color="#1a1e3a"/>
    </linearGradient>
  </defs>
  <rect width="800" height="380" fill="url(#bgGrad)" rx="12"/>
  <text x="400.0" y="35" text-anchor="middle" fill="#ffffff" font-size="20" font-weight="700">The Bone Marrow Factory</text>
  <text x="400.0" y="57" text-anchor="middle" fill="#8a8fa8" font-size="14">300 billion new blood cells per day, all dependent on folic acid</text>
  <rect x="30" y="75" width="225" height="250" fill="#111738" rx="10" stroke="#4FC3F7" stroke-width="1.5" stroke-opacity="0.4"/>
  <text x="142.5" y="103" text-anchor="middle" fill="#4FC3F7" font-size="14" font-weight="600">Starved (Bombay)</text>
  <text x="142.5" y="121" text-anchor="middle" fill="#8a8fa8" font-size="11">No folic acid</text>
  <circle cx="112.5" cy="215.0" r="12.0" fill="#4FC3F7" opacity="0.40"/>
  <circle cx="142.5" cy="215.0" r="12.0" fill="#4FC3F7" opacity="0.40"/>
  <circle cx="172.5" cy="215.0" r="12.0" fill="#4FC3F7" opacity="0.40"/>
  <text x="142.5" y="305" text-anchor="middle" fill="#4FC3F7" font-size="12" font-weight="600">Factory halted</text>
  <rect x="285" y="75" width="225" height="250" fill="#111738" rx="10" stroke="#69F0AE" stroke-width="1.5" stroke-opacity="0.4"/>
  <text x="397.5" y="103" text-anchor="middle" fill="#69F0AE" font-size="14" font-weight="600">Normal</text>
  <text x="397.5" y="121" text-anchor="middle" fill="#8a8fa8" font-size="11">Folic acid present</text>
  <circle cx="355.5" cy="201.0" r="10.0" fill="#69F0AE" opacity="0.70"/>
  <circle cx="383.5" cy="201.0" r="10.0" fill="#69F0AE" opacity="0.70"/>
  <circle cx="411.5" cy="201.0" r="10.0" fill="#69F0AE" opacity="0.70"/>
  <circle cx="439.5" cy="201.0" r="10.0" fill="#69F0AE" opacity="0.70"/>
  <circle cx="355.5" cy="229.0" r="10.0" fill="#69F0AE" opacity="0.70"/>
  <circle cx="383.5" cy="229.0" r="10.0" fill="#69F0AE" opacity="0.70"/>
  <circle cx="411.5" cy="229.0" r="10.0" fill="#69F0AE" opacity="0.70"/>
  <circle cx="439.5" cy="229.0" r="10.0" fill="#69F0AE" opacity="0.70"/>
  <text x="397.5" y="305" text-anchor="middle" fill="#69F0AE" font-size="12" font-weight="600">Steady production</text>
  <rect x="540" y="75" width="225" height="250" fill="#111738" rx="10" stroke="#FF6B6B" stroke-width="1.5" stroke-opacity="0.4"/>
  <text x="652.5" y="103" text-anchor="middle" fill="#FF6B6B" font-size="14" font-weight="600">Leukemia</text>
  <text x="652.5" y="121" text-anchor="middle" fill="#8a8fa8" font-size="11">Folic acid overdrive</text>
  <circle cx="582.9" cy="264.6" r="6.7" fill="#FF6B6B" opacity="0.77"/>
  <circle cx="710.5" cy="242.2" r="7.5" fill="#FF6B6B" opacity="0.58"/>
  <circle cx="690.2" cy="266.2" r="9.3" fill="#FF6B6B" opacity="0.67"/>
  <circle cx="633.4" cy="204.6" r="9.6" fill="#FF6B6B" opacity="0.61"/>
  <circle cx="658.3" cy="229.4" r="9.2" fill="#FF6B6B" opacity="0.42"/>
  <circle cx="606.7" cy="237.6" r="8.9" fill="#FF6B6B" opacity="0.82"/>
  <circle cx="576.4" cy="185.5" r="8.5" fill="#FF6B6B" opacity="0.77"/>
  <circle cx="600.7" cy="244.1" r="8.1" fill="#FF6B6B" opacity="0.55"/>
  <circle cx="708.5" cy="171.8" r="10.7" fill="#FF6B6B" opacity="0.56"/>
  <circle cx="629.1" cy="182.3" r="8.3" fill="#FF6B6B" opacity="0.82"/>
  <circle cx="605.1" cy="220.9" r="8.2" fill="#FF6B6B" opacity="0.55"/>
  <circle cx="589.6" cy="236.8" r="8.1" fill="#FF6B6B" opacity="0.63"/>
  <circle cx="670.0" cy="171.8" r="10.1" fill="#FF6B6B" opacity="0.85"/>
  <circle cx="610.7" cy="249.8" r="9.5" fill="#FF6B6B" opacity="0.55"/>
  <circle cx="613.4" cy="169.2" r="8.1" fill="#FF6B6B" opacity="0.63"/>
  <circle cx="650.3" cy="213.0" r="8.7" fill="#FF6B6B" opacity="0.46"/>
  <circle cx="605.7" cy="221.5" r="8.4" fill="#FF6B6B" opacity="0.49"/>
  <circle cx="614.6" cy="267.7" r="10.0" fill="#FF6B6B" opacity="0.76"/>
  <circle cx="627.9" cy="206.0" r="9.5" fill="#FF6B6B" opacity="0.68"/>
  <circle cx="676.4" cy="163.9" r="9.6" fill="#FF6B6B" opacity="0.50"/>
  <text x="652.5" y="305" text-anchor="middle" fill="#FF6B6B" font-size="12" font-weight="600">Factory out of control</text>
  <text x="400.0" y="365" text-anchor="middle" fill="#FFEB3B" font-size="13" font-weight="600">Farber's question: Can we recreate the Bombay anemia in leukemia patients, on purpose?</text>
</svg>
