<?xml version="1.0" encoding="UTF-8"?>
<svg xmlns="http://www.w3.org/2000/svg" viewBox="0 0 800 440" width="800" height="440">
  <title>From Normal Growth to Neoplasia</title>
  <defs>
    <style>
      @import url('https://fonts.googleapis.com/css2?family=Inter:wght@400;600;700&amp;display=swap');
      text { font-family: 'Inter', 'Segoe UI', system-ui, sans-serif; }
    </style>
    <filter id="glow">
      <feGaussianBlur stdDeviation="3" result="blur"/>
      <feMerge><feMergeNode in="blur"/><feMergeNode in="SourceGraphic"/></feMerge>
    </filter>
    <linearGradient id="bgGrad" x1="0" y1="0" x2="0" y2="1">
      <stop offset="0%" stop-color="#0a0e27"/>
      <stop offset="100%" stop-color="#1a1e3a"/>
    </linearGradient>
  </defs>
  <rect width="800" height="440" fill="url(#bgGrad)" rx="12"/>
  <text x="400.0" y="40" text-anchor="middle" fill="#ffffff" font-size="20" font-weight="700">The Spectrum of Cell Growth</text>
  <text x="400.0" y="62" text-anchor="middle" fill="#8a8fa8" font-size="14">Normal hyperplasia → Pathological hyperplasia → Neoplasia (cancer)</text>
  <rect x="30" y="85" width="230" height="280" fill="#111738" rx="10" stroke="#69F0AE" stroke-width="1.5" stroke-opacity="0.4"/>
  <text x="145.0" y="111" text-anchor="middle" fill="#69F0AE" font-size="15" font-weight="600">Normal Hyperplasia</text>
  <text x="145.0" y="133" text-anchor="middle" fill="#8a8fa8" font-size="11">Controlled multiplication</text>
  <circle cx="53.0" cy="255.0" r="16" fill="#69F0AE" opacity="0.6"/>
  <circle cx="53.0" cy="255.0" r="5.6" fill="#111738" opacity="0.5"/>
  <circle cx="89.8" cy="255.0" r="16" fill="#69F0AE" opacity="0.6"/>
  <circle cx="89.8" cy="255.0" r="5.6" fill="#111738" opacity="0.5"/>
  <circle cx="126.6" cy="255.0" r="16" fill="#69F0AE" opacity="0.6"/>
  <circle cx="126.6" cy="255.0" r="5.6" fill="#111738" opacity="0.5"/>
  <circle cx="163.4" cy="255.0" r="16" fill="#69F0AE" opacity="0.6"/>
  <circle cx="163.4" cy="255.0" r="5.6" fill="#111738" opacity="0.5"/>
  <circle cx="200.2" cy="255.0" r="16" fill="#69F0AE" opacity="0.6"/>
  <circle cx="200.2" cy="255.0" r="5.6" fill="#111738" opacity="0.5"/>
  <circle cx="237.0" cy="255.0" r="16" fill="#69F0AE" opacity="0.6"/>
  <circle cx="237.0" cy="255.0" r="5.6" fill="#111738" opacity="0.5"/>
  <text x="145.0" y="345" text-anchor="middle" fill="#8a8fa8" font-size="11">Cells divide when needed,</text>
  <text x="145.0" y="360" text-anchor="middle" fill="#8a8fa8" font-size="11">then stop on signal</text>
  <rect x="280" y="85" width="230" height="280" fill="#111738" rx="10" stroke="#FFD700" stroke-width="1.5" stroke-opacity="0.4"/>
  <text x="395.0" y="111" text-anchor="middle" fill="#FFD700" font-size="15" font-weight="600">Pathological</text>
  <text x="395.0" y="129" text-anchor="middle" fill="#FFD700" font-size="15" font-weight="600">Hyperplasia</text>
  <text x="395.0" y="151" text-anchor="middle" fill="#8a8fa8" font-size="11">Excessive but responsive</text>
  <circle cx="314.5" cy="238.9" r="14" fill="#FFD700" opacity="0.6"/>
  <circle cx="314.5" cy="238.9" r="4.8999999999999995" fill="#111738" opacity="0.5"/>
  <circle cx="346.7" cy="238.9" r="14" fill="#FFD700" opacity="0.6"/>
  <circle cx="346.7" cy="238.9" r="4.8999999999999995" fill="#111738" opacity="0.5"/>
  <circle cx="378.9" cy="238.9" r="14" fill="#FFD700" opacity="0.6"/>
  <circle cx="378.9" cy="238.9" r="4.8999999999999995" fill="#111738" opacity="0.5"/>
  <circle cx="411.1" cy="238.9" r="14" fill="#FFD700" opacity="0.6"/>
  <circle cx="411.1" cy="238.9" r="4.8999999999999995" fill="#111738" opacity="0.5"/>
  <circle cx="443.3" cy="238.9" r="14" fill="#FFD700" opacity="0.6"/>
  <circle cx="443.3" cy="238.9" r="4.8999999999999995" fill="#111738" opacity="0.5"/>
  <circle cx="475.5" cy="238.9" r="14" fill="#FFD700" opacity="0.6"/>
  <circle cx="475.5" cy="238.9" r="4.8999999999999995" fill="#111738" opacity="0.5"/>
  <circle cx="314.5" cy="271.1" r="14" fill="#FFD700" opacity="0.6"/>
  <circle cx="314.5" cy="271.1" r="4.8999999999999995" fill="#111738" opacity="0.5"/>
  <circle cx="346.7" cy="271.1" r="14" fill="#FFD700" opacity="0.6"/>
  <circle cx="346.7" cy="271.1" r="4.8999999999999995" fill="#111738" opacity="0.5"/>
  <circle cx="378.9" cy="271.1" r="14" fill="#FFD700" opacity="0.6"/>
  <circle cx="378.9" cy="271.1" r="4.8999999999999995" fill="#111738" opacity="0.5"/>
  <circle cx="411.1" cy="271.1" r="14" fill="#FFD700" opacity="0.6"/>
  <circle cx="411.1" cy="271.1" r="4.8999999999999995" fill="#111738" opacity="0.5"/>
  <circle cx="443.3" cy="271.1" r="14" fill="#FFD700" opacity="0.6"/>
  <circle cx="443.3" cy="271.1" r="4.8999999999999995" fill="#111738" opacity="0.5"/>
  <circle cx="475.5" cy="271.1" r="14" fill="#FFD700" opacity="0.6"/>
  <circle cx="475.5" cy="271.1" r="4.8999999999999995" fill="#111738" opacity="0.5"/>
  <text x="395.0" y="345" text-anchor="middle" fill="#8a8fa8" font-size="11">Too many cells, but still</text>
  <text x="395.0" y="360" text-anchor="middle" fill="#8a8fa8" font-size="11">respond to stop signals</text>
  <rect x="530" y="85" width="230" height="280" fill="#111738" rx="10" stroke="#FF6B6B" stroke-width="1.5" stroke-opacity="0.4"/>
  <text x="645.0" y="111" text-anchor="middle" fill="#FF6B6B" font-size="15" font-weight="600">Neoplasia</text>
  <text x="645.0" y="133" text-anchor="middle" fill="#8a8fa8" font-size="11">Autonomous, uncontrolled</text>
  <circle cx="629.6" cy="219.0" r="10.4" fill="#FF6B6B" opacity="0.50"/>
  <circle cx="629.6" cy="219.0" r="3.7" fill="#111738" opacity="0.5"/>
  <circle cx="686.6" cy="225.1" r="12.1" fill="#FF6B6B" opacity="0.67"/>
  <circle cx="686.6" cy="225.1" r="4.2" fill="#111738" opacity="0.5"/>
  <circle cx="651.2" cy="307.6" r="12.9" fill="#FF6B6B" opacity="0.57"/>
  <circle cx="651.2" cy="307.6" r="4.5" fill="#111738" opacity="0.5"/>
  <circle cx="663.1" cy="221.0" r="16.2" fill="#FF6B6B" opacity="0.55"/>
  <circle cx="663.1" cy="221.0" r="5.7" fill="#111738" opacity="0.5"/>
  <circle cx="627.1" cy="276.9" r="10.2" fill="#FF6B6B" opacity="0.66"/>
  <circle cx="627.1" cy="276.9" r="3.6" fill="#111738" opacity="0.5"/>
  <circle cx="701.0" cy="235.7" r="16.6" fill="#FF6B6B" opacity="0.61"/>
  <circle cx="701.0" cy="235.7" r="5.8" fill="#111738" opacity="0.5"/>
  <circle cx="688.9" cy="251.3" r="12.2" fill="#FF6B6B" opacity="0.51"/>
  <circle cx="688.9" cy="251.3" r="4.3" fill="#111738" opacity="0.5"/>
  <circle cx="566.2" cy="219.5" r="16.9" fill="#FF6B6B" opacity="0.61"/>
  <circle cx="566.2" cy="219.5" r="5.9" fill="#111738" opacity="0.5"/>
  <circle cx="638.9" cy="303.0" r="13.8" fill="#FF6B6B" opacity="0.79"/>
  <circle cx="638.9" cy="303.0" r="4.8" fill="#111738" opacity="0.5"/>
  <circle cx="622.2" cy="220.9" r="16.4" fill="#FF6B6B" opacity="0.46"/>
  <circle cx="622.2" cy="220.9" r="5.7" fill="#111738" opacity="0.5"/>
  <circle cx="691.7" cy="266.5" r="16.9" fill="#FF6B6B" opacity="0.78"/>
  <circle cx="691.7" cy="266.5" r="5.9" fill="#111738" opacity="0.5"/>
  <circle cx="670.6" cy="199.4" r="9.2" fill="#FF6B6B" opacity="0.59"/>
  <circle cx="670.6" cy="199.4" r="3.2" fill="#111738" opacity="0.5"/>
  <circle cx="696.1" cy="204.7" r="12.4" fill="#FF6B6B" opacity="0.43"/>
  <circle cx="696.1" cy="204.7" r="4.3" fill="#111738" opacity="0.5"/>
  <circle cx="614.6" cy="195.7" r="11.6" fill="#FF6B6B" opacity="0.61"/>
  <circle cx="614.6" cy="195.7" r="4.1" fill="#111738" opacity="0.5"/>
  <circle cx="597.1" cy="289.5" r="9.4" fill="#FF6B6B" opacity="0.48"/>
  <circle cx="597.1" cy="289.5" r="3.3" fill="#111738" opacity="0.5"/>
  <circle cx="606.2" cy="243.5" r="15.1" fill="#FF6B6B" opacity="0.54"/>
  <circle cx="606.2" cy="243.5" r="5.3" fill="#111738" opacity="0.5"/>
  <circle cx="676.2" cy="305.7" r="10.0" fill="#FF6B6B" opacity="0.75"/>
  <circle cx="676.2" cy="305.7" r="3.5" fill="#111738" opacity="0.5"/>
  <circle cx="660.9" cy="284.7" r="13.9" fill="#FF6B6B" opacity="0.56"/>
  <circle cx="660.9" cy="284.7" r="4.9" fill="#111738" opacity="0.5"/>
  <circle cx="580.4" cy="212.2" r="10.4" fill="#FF6B6B" opacity="0.47"/>
  <circle cx="580.4" cy="212.2" r="3.6" fill="#111738" opacity="0.5"/>
  <circle cx="588.3" cy="219.9" r="13.5" fill="#FF6B6B" opacity="0.71"/>
  <circle cx="588.3" cy="219.9" r="4.7" fill="#111738" opacity="0.5"/>
  <circle cx="692.7" cy="296.5" r="9.9" fill="#FF6B6B" opacity="0.73"/>
  <circle cx="692.7" cy="296.5" r="3.5" fill="#111738" opacity="0.5"/>
  <circle cx="594.8" cy="203.7" r="11.3" fill="#FF6B6B" opacity="0.63"/>
  <circle cx="594.8" cy="203.7" r="4.0" fill="#111738" opacity="0.5"/>
  <circle cx="572.6" cy="221.0" r="12.2" fill="#FF6B6B" opacity="0.73"/>
  <circle cx="572.6" cy="221.0" r="4.3" fill="#111738" opacity="0.5"/>
  <circle cx="628.9" cy="244.7" r="12.0" fill="#FF6B6B" opacity="0.44"/>
  <circle cx="628.9" cy="244.7" r="4.2" fill="#111738" opacity="0.5"/>
  <text x="645.0" y="345" text-anchor="middle" fill="#8a8fa8" font-size="11">Cells ignore all stop signals.</text>
  <text x="645.0" y="360" text-anchor="middle" fill="#8a8fa8" font-size="11">Growth has its own will.</text>
  <defs><linearGradient id="spectrumGrad" x1="0" y1="0" x2="1" y2="0"><stop offset="0%" stop-color="#69F0AE"/><stop offset="50%" stop-color="#FFD700"/><stop offset="100%" stop-color="#FF6B6B"/></linearGradient></defs>
  <rect x="80" y="395" width="640" height="8" fill="url(#spectrumGrad)" rx="4"/>
  <text x="80" y="420" fill="#69F0AE" font-size="11">Controlled</text>
  <text x="720" y="420" text-anchor="end" fill="#FF6B6B" font-size="11">Uncontrolled</text>
</svg>
