<?xml version="1.0" encoding="UTF-8"?>
<svg xmlns="http://www.w3.org/2000/svg" viewBox="0 0 800 520" width="800" height="520">
  <title>Why Farber Chose Leukemia: The Measurability Advantage</title>
  <defs>
    <style>
      @import url('https://fonts.googleapis.com/css2?family=Inter:wght@400;600;700&amp;display=swap');
      text { font-family: 'Inter', 'Segoe UI', system-ui, sans-serif; }
    </style>
    <filter id="glow">
      <feGaussianBlur stdDeviation="3" result="blur"/>
      <feMerge><feMergeNode in="blur"/><feMergeNode in="SourceGraphic"/></feMerge>
    </filter>
    <linearGradient id="bgGrad" x1="0" y1="0" x2="0" y2="1">
      <stop offset="0%" stop-color="#0a0e27"/>
      <stop offset="100%" stop-color="#1a1e3a"/>
    </linearGradient>
  </defs>
  <rect width="800" height="520" fill="url(#bgGrad)" rx="12"/>
  <text x="400.0" y="40" text-anchor="middle" fill="#ffffff" font-size="20" font-weight="700">Why Leukemia? Because You Can Count It.</text>
  <text x="400.0" y="62" text-anchor="middle" fill="#8a8fa8" font-size="14">Farber's key insight: choose the cancer you can measure</text>
  <rect x="40" y="90" width="340" height="340" fill="#111738" rx="10" stroke="#FF6B6B" stroke-width="1.5" stroke-opacity="0.3"/>
  <text x="210.0" y="120" text-anchor="middle" fill="#FF6B6B" font-size="16" font-weight="600">Solid Tumor (1940s)</text>
  <ellipse cx="210.0" cy="260" rx="80" ry="110" fill="none" stroke="#8a8fa8" stroke-width="1.5" stroke-dasharray="4,4" opacity="0.5"/>
  <circle cx="190.0" cy="240" r="25" fill="#FF6B6B" opacity="0.3"/>
  <text x="190.0" y="244" text-anchor="middle" fill="#FF6B6B" font-size="10" opacity="0.7">tumor</text>
  <text x="250.0" y="210" text-anchor="middle" fill="#8a8fa8" font-size="20" opacity="0.4">?</text>
  <text x="150.0" y="290" text-anchor="middle" fill="#8a8fa8" font-size="20" opacity="0.4">?</text>
  <text x="260.0" y="280" text-anchor="middle" fill="#8a8fa8" font-size="20" opacity="0.4">?</text>
  <text x="210.0" y="395" text-anchor="middle" fill="#8a8fa8" font-size="12">No CT scans. No MRIs.</text>
  <text x="210.0" y="415" text-anchor="middle" fill="#FF6B6B" font-size="13" font-weight="600">Can't see it. Can't measure it.</text>
  <rect x="420" y="90" width="340" height="340" fill="#111738" rx="10" stroke="#69F0AE" stroke-width="1.5" stroke-opacity="0.3"/>
  <text x="590.0" y="120" text-anchor="middle" fill="#69F0AE" font-size="16" font-weight="600">Leukemia (1940s)</text>
  <circle cx="590.0" cy="240" r="80" fill="none" stroke="#69F0AE" stroke-width="2" opacity="0.4"/>
  <text x="680.0" y="175" fill="#8a8fa8" font-size="10">microscope view</text>
  <circle cx="597.5" cy="216.6" r="9.2" fill="#B388FF" opacity="0.6"/>
  <circle cx="597.5" cy="216.6" r="3.7" fill="#111738" opacity="0.5"/>
  <circle cx="595.2" cy="229.3" r="10.4" fill="#B388FF" opacity="0.6"/>
  <circle cx="595.2" cy="229.3" r="4.2" fill="#111738" opacity="0.5"/>
  <circle cx="551.0" cy="225.2" r="8.7" fill="#B388FF" opacity="0.6"/>
  <circle cx="551.0" cy="225.2" r="3.5" fill="#111738" opacity="0.5"/>
  <circle cx="566.1" cy="214.4" r="12.3" fill="#B388FF" opacity="0.6"/>
  <circle cx="566.1" cy="214.4" r="4.9" fill="#111738" opacity="0.5"/>
  <circle cx="651.4" cy="251.1" r="8.9" fill="#B388FF" opacity="0.6"/>
  <circle cx="651.4" cy="251.1" r="3.5" fill="#111738" opacity="0.5"/>
  <circle cx="603.7" cy="207.3" r="12.2" fill="#B388FF" opacity="0.6"/>
  <circle cx="603.7" cy="207.3" r="4.9" fill="#111738" opacity="0.5"/>
  <circle cx="599.9" cy="262.2" r="8.4" fill="#B388FF" opacity="0.6"/>
  <circle cx="599.9" cy="262.2" r="3.4" fill="#111738" opacity="0.5"/>
  <circle cx="596.6" cy="203.6" r="9.0" fill="#B388FF" opacity="0.6"/>
  <circle cx="596.6" cy="203.6" r="3.6" fill="#111738" opacity="0.5"/>
  <circle cx="593.5" cy="249.2" r="9.0" fill="#B388FF" opacity="0.6"/>
  <circle cx="593.5" cy="249.2" r="3.6" fill="#111738" opacity="0.5"/>
  <circle cx="560.9" cy="228.5" r="11.5" fill="#B388FF" opacity="0.6"/>
  <circle cx="560.9" cy="228.5" r="4.6" fill="#111738" opacity="0.5"/>
  <circle cx="639.1" cy="265.5" r="12.9" fill="#B388FF" opacity="0.6"/>
  <circle cx="639.1" cy="265.5" r="5.2" fill="#111738" opacity="0.5"/>
  <circle cx="586.8" cy="190.5" r="12.2" fill="#B388FF" opacity="0.6"/>
  <circle cx="586.8" cy="190.5" r="4.9" fill="#111738" opacity="0.5"/>
  <circle cx="617.0" cy="258.4" r="8.4" fill="#B388FF" opacity="0.6"/>
  <circle cx="617.0" cy="258.4" r="3.4" fill="#111738" opacity="0.5"/>
  <circle cx="597.3" cy="203.5" r="8.5" fill="#B388FF" opacity="0.6"/>
  <circle cx="597.3" cy="203.5" r="3.4" fill="#111738" opacity="0.5"/>
  <circle cx="541.5" cy="257.6" r="10.8" fill="#B388FF" opacity="0.6"/>
  <circle cx="541.5" cy="257.6" r="4.3" fill="#111738" opacity="0.5"/>
  <circle cx="634.2" cy="282.3" r="8.3" fill="#B388FF" opacity="0.6"/>
  <circle cx="634.2" cy="282.3" r="3.3" fill="#111738" opacity="0.5"/>
  <circle cx="625.0" cy="187.1" r="11.8" fill="#B388FF" opacity="0.6"/>
  <circle cx="625.0" cy="187.1" r="4.7" fill="#111738" opacity="0.5"/>
  <circle cx="624.7" cy="227.7" r="9.1" fill="#B388FF" opacity="0.6"/>
  <circle cx="624.7" cy="227.7" r="3.6" fill="#111738" opacity="0.5"/>
  <text x="590.0" y="340" text-anchor="middle" fill="#69F0AE" font-size="14" font-weight="600">Count = 18 blast cells</text>
  <text x="590.0" y="395" text-anchor="middle" fill="#8a8fa8" font-size="12">Draw blood. Look under microscope.</text>
  <text x="590.0" y="415" text-anchor="middle" fill="#69F0AE" font-size="13" font-weight="600">Can see it. Can count it. Can test drugs.</text>
  <rect x="100" y="450" width="600" height="50" fill="#111738" rx="8" stroke="#FFEB3B" stroke-width="1" stroke-opacity="0.4"/>
  <text x="400.0" y="472" text-anchor="middle" fill="#FFEB3B" font-size="14" font-weight="600">"Science begins with counting."</text>
  <text x="400.0" y="490" text-anchor="middle" fill="#8a8fa8" font-size="12">Give a drug → draw blood → count cells → measure success or failure</text>
</svg>
