<?xml version="1.0" encoding="UTF-8"?>
<svg xmlns="http://www.w3.org/2000/svg" viewBox="0 0 800 350" font-family="'Segoe UI', Arial, sans-serif">
  <defs>
    <linearGradient id="bg" x1="0" y1="0" x2="0" y2="1">
      <stop offset="0%" stop-color="#0a0e27"/>
      <stop offset="100%" stop-color="#1a1e3a"/>
    </linearGradient>
  </defs>
  <rect width="800" height="350" fill="url(#bg)" rx="12"/>

  <text x="400" y="35" text-anchor="middle" fill="#fff" font-size="20" font-weight="bold">WHAT IS HEAT?</text>
  <text x="400" y="55" text-anchor="middle" fill="#ffffff60" font-size="13">Nothing more than atoms moving</text>

  <line x1="400" y1="70" x2="400" y2="310" stroke="#ffffff15" stroke-width="2" stroke-dasharray="8,6"/>

  <!-- Cold side -->
  <text x="200" y="85" text-anchor="middle" fill="#4FC3F7" font-size="16" font-weight="bold">COLD</text>
  <text x="200" y="103" text-anchor="middle" fill="#ffffff40" font-size="11">Atoms barely moving</text>

  <rect x="60" y="115" width="280" height="180" fill="#4FC3F710" rx="8" stroke="#4FC3F720" stroke-width="1"/>
  <circle cx="226" cy="172" r="5" fill="#4FC3F7" opacity="0.5"/>
  <line x1="226" y1="172" x2="223" y2="168" stroke="#4FC3F7" stroke-width="1" opacity="0.3"/>
  <circle cx="289" cy="200" r="5" fill="#4FC3F7" opacity="0.5"/>
  <line x1="289" y1="200" x2="284" y2="201" stroke="#4FC3F7" stroke-width="1" opacity="0.3"/>
  <circle cx="305" cy="266" r="5" fill="#4FC3F7" opacity="0.5"/>
  <line x1="305" y1="266" x2="309" y2="263" stroke="#4FC3F7" stroke-width="1" opacity="0.3"/>
  <circle cx="127" cy="258" r="5" fill="#4FC3F7" opacity="0.5"/>
  <line x1="127" y1="258" x2="125" y2="263" stroke="#4FC3F7" stroke-width="1" opacity="0.3"/>
  <circle cx="255" cy="265" r="5" fill="#4FC3F7" opacity="0.5"/>
  <line x1="255" y1="265" x2="250" y2="266" stroke="#4FC3F7" stroke-width="1" opacity="0.3"/>
  <circle cx="152" cy="148" r="5" fill="#4FC3F7" opacity="0.5"/>
  <line x1="152" y1="148" x2="150" y2="153" stroke="#4FC3F7" stroke-width="1" opacity="0.3"/>
  <circle cx="159" cy="262" r="5" fill="#4FC3F7" opacity="0.5"/>
  <line x1="159" y1="262" x2="154" y2="262" stroke="#4FC3F7" stroke-width="1" opacity="0.3"/>
  <circle cx="93" cy="239" r="5" fill="#4FC3F7" opacity="0.5"/>
  <line x1="93" y1="239" x2="95" y2="234" stroke="#4FC3F7" stroke-width="1" opacity="0.3"/>
  <circle cx="151" cy="211" r="5" fill="#4FC3F7" opacity="0.5"/>
  <line x1="151" y1="211" x2="146" y2="209" stroke="#4FC3F7" stroke-width="1" opacity="0.3"/>
  <circle cx="254" cy="192" r="5" fill="#4FC3F7" opacity="0.5"/>
  <line x1="254" y1="192" x2="258" y2="195" stroke="#4FC3F7" stroke-width="1" opacity="0.3"/>
  <circle cx="94" cy="211" r="5" fill="#4FC3F7" opacity="0.5"/>
  <line x1="94" y1="211" x2="99" y2="210" stroke="#4FC3F7" stroke-width="1" opacity="0.3"/>
  <circle cx="152" cy="184" r="5" fill="#4FC3F7" opacity="0.5"/>
  <line x1="152" y1="184" x2="157" y2="184" stroke="#4FC3F7" stroke-width="1" opacity="0.3"/>
  <circle cx="96" cy="223" r="5" fill="#4FC3F7" opacity="0.5"/>
  <line x1="96" y1="223" x2="100" y2="226" stroke="#4FC3F7" stroke-width="1" opacity="0.3"/>
  <circle cx="162" cy="192" r="5" fill="#4FC3F7" opacity="0.5"/>
  <line x1="162" y1="192" x2="157" y2="192" stroke="#4FC3F7" stroke-width="1" opacity="0.3"/>
  <circle cx="161" cy="131" r="5" fill="#4FC3F7" opacity="0.5"/>
  <line x1="161" y1="131" x2="158" y2="135" stroke="#4FC3F7" stroke-width="1" opacity="0.3"/>
  <circle cx="248" cy="207" r="5" fill="#4FC3F7" opacity="0.5"/>
  <line x1="248" y1="207" x2="243" y2="205" stroke="#4FC3F7" stroke-width="1" opacity="0.3"/>
  <circle cx="179" cy="177" r="5" fill="#4FC3F7" opacity="0.5"/>
  <line x1="179" y1="177" x2="177" y2="172" stroke="#4FC3F7" stroke-width="1" opacity="0.3"/>
  <circle cx="305" cy="138" r="5" fill="#4FC3F7" opacity="0.5"/>
  <line x1="305" y1="138" x2="302" y2="142" stroke="#4FC3F7" stroke-width="1" opacity="0.3"/>
  <circle cx="240" cy="273" r="5" fill="#4FC3F7" opacity="0.5"/>
  <line x1="240" y1="273" x2="243" y2="269" stroke="#4FC3F7" stroke-width="1" opacity="0.3"/>
  <circle cx="96" cy="168" r="5" fill="#4FC3F7" opacity="0.5"/>
  <line x1="96" y1="168" x2="100" y2="171" stroke="#4FC3F7" stroke-width="1" opacity="0.3"/>
  <circle cx="286" cy="211" r="5" fill="#4FC3F7" opacity="0.5"/>
  <line x1="286" y1="211" x2="291" y2="211" stroke="#4FC3F7" stroke-width="1" opacity="0.3"/>
  <circle cx="184" cy="200" r="5" fill="#4FC3F7" opacity="0.5"/>
  <line x1="184" y1="200" x2="181" y2="204" stroke="#4FC3F7" stroke-width="1" opacity="0.3"/>
  <circle cx="301" cy="179" r="5" fill="#4FC3F7" opacity="0.5"/>
  <line x1="301" y1="179" x2="299" y2="175" stroke="#4FC3F7" stroke-width="1" opacity="0.3"/>
  <circle cx="179" cy="247" r="5" fill="#4FC3F7" opacity="0.5"/>
  <line x1="179" y1="247" x2="175" y2="244" stroke="#4FC3F7" stroke-width="1" opacity="0.3"/>
  <circle cx="282" cy="221" r="5" fill="#4FC3F7" opacity="0.5"/>
  <line x1="282" y1="221" x2="278" y2="218" stroke="#4FC3F7" stroke-width="1" opacity="0.3"/>

  <text x="200" y="320" text-anchor="middle" fill="#4FC3F780" font-size="11">Slow atoms = cold substance</text>

  <!-- Hot side -->
  <text x="600" y="85" text-anchor="middle" fill="#FF6B6B" font-size="16" font-weight="bold">HOT</text>
  <text x="600" y="103" text-anchor="middle" fill="#ffffff40" font-size="11">Atoms flying around</text>

  <rect x="460" y="115" width="280" height="180" fill="#FF6B6B10" rx="8" stroke="#FF6B6B20" stroke-width="1"/>
  <circle cx="596" cy="208" r="5" fill="#FF6B6B" opacity="0.5"/>
  <line x1="596" y1="208" x2="581" y2="209" stroke="#FF6B6B" stroke-width="1.5" opacity="0.4"/>
  <circle cx="577" cy="227" r="5" fill="#FF6B6B" opacity="0.5"/>
  <line x1="577" y1="227" x2="578" y2="207" stroke="#FF6B6B" stroke-width="1.5" opacity="0.4"/>
  <circle cx="650" cy="192" r="5" fill="#FF6B6B" opacity="0.5"/>
  <line x1="650" y1="192" x2="673" y2="194" stroke="#FF6B6B" stroke-width="1.5" opacity="0.4"/>
  <circle cx="593" cy="210" r="5" fill="#FF6B6B" opacity="0.5"/>
  <line x1="593" y1="210" x2="612" y2="190" stroke="#FF6B6B" stroke-width="1.5" opacity="0.4"/>
  <circle cx="700" cy="171" r="5" fill="#FF6B6B" opacity="0.5"/>
  <line x1="700" y1="171" x2="722" y2="157" stroke="#FF6B6B" stroke-width="1.5" opacity="0.4"/>
  <circle cx="603" cy="138" r="5" fill="#FF6B6B" opacity="0.5"/>
  <line x1="603" y1="138" x2="593" y2="112" stroke="#FF6B6B" stroke-width="1.5" opacity="0.4"/>
  <circle cx="718" cy="202" r="5" fill="#FF6B6B" opacity="0.5"/>
  <line x1="718" y1="202" x2="697" y2="207" stroke="#FF6B6B" stroke-width="1.5" opacity="0.4"/>
  <circle cx="609" cy="234" r="5" fill="#FF6B6B" opacity="0.5"/>
  <line x1="609" y1="234" x2="607" y2="262" stroke="#FF6B6B" stroke-width="1.5" opacity="0.4"/>
  <circle cx="673" cy="253" r="5" fill="#FF6B6B" opacity="0.5"/>
  <line x1="673" y1="253" x2="653" y2="270" stroke="#FF6B6B" stroke-width="1.5" opacity="0.4"/>
  <circle cx="561" cy="213" r="5" fill="#FF6B6B" opacity="0.5"/>
  <line x1="561" y1="213" x2="576" y2="239" stroke="#FF6B6B" stroke-width="1.5" opacity="0.4"/>
  <circle cx="714" cy="211" r="5" fill="#FF6B6B" opacity="0.5"/>
  <line x1="714" y1="211" x2="700" y2="198" stroke="#FF6B6B" stroke-width="1.5" opacity="0.4"/>
  <circle cx="639" cy="174" r="5" fill="#FF6B6B" opacity="0.5"/>
  <line x1="639" y1="174" x2="641" y2="145" stroke="#FF6B6B" stroke-width="1.5" opacity="0.4"/>
  <circle cx="692" cy="239" r="5" fill="#FF6B6B" opacity="0.5"/>
  <line x1="692" y1="239" x2="667" y2="250" stroke="#FF6B6B" stroke-width="1.5" opacity="0.4"/>
  <circle cx="716" cy="224" r="5" fill="#FF6B6B" opacity="0.5"/>
  <line x1="716" y1="224" x2="716" y2="200" stroke="#FF6B6B" stroke-width="1.5" opacity="0.4"/>
  <circle cx="610" cy="138" r="5" fill="#FF6B6B" opacity="0.5"/>
  <line x1="610" y1="138" x2="624" y2="118" stroke="#FF6B6B" stroke-width="1.5" opacity="0.4"/>
  <circle cx="664" cy="133" r="5" fill="#FF6B6B" opacity="0.5"/>
  <line x1="664" y1="133" x2="666" y2="149" stroke="#FF6B6B" stroke-width="1.5" opacity="0.4"/>
  <circle cx="549" cy="150" r="5" fill="#FF6B6B" opacity="0.5"/>
  <line x1="549" y1="150" x2="533" y2="142" stroke="#FF6B6B" stroke-width="1.5" opacity="0.4"/>
  <circle cx="528" cy="180" r="5" fill="#FF6B6B" opacity="0.5"/>
  <line x1="528" y1="180" x2="543" y2="175" stroke="#FF6B6B" stroke-width="1.5" opacity="0.4"/>
  <circle cx="717" cy="132" r="5" fill="#FF6B6B" opacity="0.5"/>
  <line x1="717" y1="132" x2="690" y2="119" stroke="#FF6B6B" stroke-width="1.5" opacity="0.4"/>
  <circle cx="654" cy="225" r="5" fill="#FF6B6B" opacity="0.5"/>
  <line x1="654" y1="225" x2="683" y2="226" stroke="#FF6B6B" stroke-width="1.5" opacity="0.4"/>
  <circle cx="585" cy="135" r="5" fill="#FF6B6B" opacity="0.5"/>
  <line x1="585" y1="135" x2="609" y2="121" stroke="#FF6B6B" stroke-width="1.5" opacity="0.4"/>
  <circle cx="515" cy="246" r="5" fill="#FF6B6B" opacity="0.5"/>
  <line x1="515" y1="246" x2="530" y2="250" stroke="#FF6B6B" stroke-width="1.5" opacity="0.4"/>
  <circle cx="679" cy="183" r="5" fill="#FF6B6B" opacity="0.5"/>
  <line x1="679" y1="183" x2="684" y2="165" stroke="#FF6B6B" stroke-width="1.5" opacity="0.4"/>
  <circle cx="508" cy="215" r="5" fill="#FF6B6B" opacity="0.5"/>
  <line x1="508" y1="215" x2="490" y2="235" stroke="#FF6B6B" stroke-width="1.5" opacity="0.4"/>
  <circle cx="669" cy="257" r="5" fill="#FF6B6B" opacity="0.5"/>
  <line x1="669" y1="257" x2="689" y2="235" stroke="#FF6B6B" stroke-width="1.5" opacity="0.4"/>

  <text x="600" y="320" text-anchor="middle" fill="#FF6B6B80" font-size="11">Fast atoms = hot substance</text>
  <text x="400" y="345" text-anchor="middle" fill="#ffffff40" font-size="11">That's it. That's the whole secret. Temperature is just average atomic speed.</text>

</svg>